<svg width="85" height="46" viewBox="0 0 85 46" fill="#2B57A6" xmlns="http://www.w3.org/2000/svg">
<path d="M71.0673 45.852H69.8365H2.2845C1.8259 45.8957 1.36572 45.7864 0.975738 45.5412C0.585756 45.2959 0.287905 44.9285 0.128644 44.4962C-0.0306165 44.064 -0.0423322 43.5911 0.0953242 43.1515C0.232981 42.7118 0.512269 42.3301 0.889625 42.0659C1.37788 41.7435 1.95876 41.5911 2.54238 41.6322H54.3757C55.8877 41.6322 56.72 40.9054 56.72 39.5692C56.7263 39.2669 56.6686 38.9668 56.5507 38.6884C56.4329 38.4101 56.2576 38.1598 56.0362 37.9539C55.8148 37.748 55.5525 37.5913 55.2663 37.4939C54.9801 37.3966 54.6766 37.3608 54.3757 37.3889H8.88381C8.38622 37.4122 7.89688 37.2556 7.50519 36.9479C7.1135 36.6401 6.84561 36.2017 6.75047 35.7127C6.67261 35.2575 6.73521 34.7893 6.92995 34.3706C7.12468 33.9518 7.44231 33.6022 7.84058 33.3684C8.16179 33.2151 8.51689 33.1465 8.87209 33.1691H15.4597C15.9125 33.2088 16.3655 33.0951 16.746 32.8464C17.1265 32.5977 17.4124 32.2284 17.5579 31.7977C17.65 31.5616 17.6942 31.3095 17.6879 31.0562C17.6817 30.8028 17.6251 30.5533 17.5214 30.322C17.4178 30.0907 17.2692 29.8824 17.0843 29.7091C16.8993 29.5358 16.6818 29.4011 16.4443 29.3127C16.1368 29.2066 15.8183 29.1358 15.4948 29.1017C14.9878 29.0838 14.5069 28.8719 14.1514 28.5099C13.7959 28.1479 13.5929 27.6632 13.5842 27.1559C13.5606 26.6714 13.7019 26.1933 13.985 25.7994C14.2682 25.4056 14.6764 25.1193 15.1432 24.9874C15.4198 24.9579 15.6988 24.9579 15.9754 24.9874H40.8254C41.2488 25.0222 41.673 24.9291 42.0429 24.7201C42.4128 24.5111 42.7114 24.1959 42.9001 23.8152C43.0193 23.5952 43.0938 23.3539 43.1194 23.105C43.145 22.8561 43.1212 22.6047 43.0493 22.365C42.9774 22.1254 42.8589 21.9023 42.7005 21.7087C42.5422 21.515 42.3471 21.3545 42.1265 21.2364C41.8223 21.0691 41.4767 20.9919 41.1302 21.0137H22.9733C22.5093 21.0258 22.0498 20.921 21.637 20.709C21.2235 20.4729 20.902 20.1039 20.7247 19.662C20.5475 19.22 20.525 18.7311 20.6608 18.2748C20.7966 17.8184 21.0828 17.4214 21.4729 17.1483C21.8629 16.8752 22.3339 16.742 22.8092 16.7705C24.9308 16.7705 27.0524 16.7705 29.174 16.7705C29.6782 16.757 30.1607 16.5624 30.5331 16.2223C30.9055 15.8822 31.1429 15.4193 31.2019 14.9185C31.2177 14.4012 31.0281 13.8987 30.6744 13.5209C30.3208 13.1431 29.8319 12.9207 29.3147 12.9023C28.9494 12.9054 28.5888 12.8195 28.264 12.6521C27.9393 12.4846 27.6603 12.2406 27.451 11.9412C27.2559 11.6316 27.1438 11.2771 27.1253 10.9117C27.1069 10.5463 27.1827 10.1823 27.3455 9.8547C27.491 9.50854 27.7408 9.21638 28.0601 9.01889C28.3795 8.82139 28.7525 8.7284 29.1272 8.75286H42.5836C42.8512 8.74654 43.1173 8.7942 43.3661 8.89298C43.6149 8.99177 43.8412 9.13966 44.0315 9.32783C44.2219 9.51599 44.3724 9.74058 44.4741 9.98819C44.5757 10.2358 44.6264 10.5013 44.6232 10.769C44.6079 11.3215 44.3777 11.8462 43.9815 12.2315C43.5852 12.6167 43.0543 12.8322 42.5016 12.832H37.4613C37.0089 12.8222 36.5665 12.9649 36.205 13.237C35.8436 13.5092 35.5842 13.895 35.4686 14.3324C35.3832 14.7846 35.4523 15.2525 35.6649 15.6607C35.8775 16.0689 36.2212 16.3937 36.6408 16.5829C36.9218 16.7015 37.2285 16.7459 37.5316 16.7119H49.3236C49.5815 16.7119 49.8276 16.7119 50.0855 16.7119C50.2914 16.7291 50.4954 16.7644 50.695 16.8174C50.9803 17.0322 51.2228 17.2986 51.4101 17.6027C51.5963 17.9116 51.7198 18.2541 51.7734 18.6108C51.8551 18.9735 51.8551 19.3499 51.7734 19.7126C51.6132 20.1872 51.3051 20.598 50.8943 20.8848H50.3551C50.0322 20.8806 49.7099 20.912 49.3939 20.9786C48.7857 21.0715 48.2384 21.3999 47.8701 21.8929C47.6738 22.2114 47.561 22.5742 47.5419 22.9478C47.5341 23.2155 47.5797 23.4821 47.6761 23.7319C47.7724 23.9818 47.9176 24.21 48.1031 24.4031C48.2886 24.5963 48.5107 24.7505 48.7565 24.8569C49.0023 24.9632 49.2668 25.0196 49.5346 25.0226C51.8203 25.0226 54.1061 25.0226 56.3918 25.0226C56.7392 24.9935 57.089 25.0293 57.4233 25.128C57.7293 25.4329 57.9663 25.8001 58.1179 26.2046C58.2696 26.609 58.3325 27.0414 58.3024 27.4724C58.1561 28.0627 57.9061 28.6223 57.5639 29.1251H24.4268C23.9765 29.0652 23.5185 29.1321 23.1043 29.3185C22.69 29.5049 22.3361 29.8033 22.0824 30.1801C21.8913 30.5015 21.789 30.868 21.786 31.2419C21.7831 31.6158 21.8796 31.9839 22.0656 32.3082C22.2517 32.6326 22.5206 32.9018 22.8449 33.088C23.1691 33.2743 23.5371 33.3711 23.911 33.3684C24.1689 33.3684 24.4268 33.3684 24.6846 33.3684H63.6006H64.2101C65.4995 34.5406 65.6167 35.2673 64.7376 36.9787C64.6087 37.2248 64.7376 37.3538 64.9017 37.471H63.1786C62.7343 37.4677 62.3009 37.6088 61.9437 37.873C61.5864 38.1373 61.3246 38.5104 61.1977 38.9362C61.1182 39.229 61.1075 39.5363 61.1663 39.834C61.2252 40.1317 61.3521 40.4117 61.537 40.6523C61.722 40.8928 61.96 41.0874 62.2326 41.2208C62.5052 41.3542 62.8049 41.4227 63.1083 41.4212C65.5347 41.6205 67.9025 41.515 69.5201 41.515C70.1179 41.515 70.5985 41.515 70.8563 41.515C71.054 41.654 71.2315 41.8197 71.3838 42.0073C71.5826 42.226 71.7449 42.4754 71.8644 42.7457C71.9857 43.1617 72.0129 43.5995 71.944 44.0273C71.875 44.4551 71.7117 44.8622 71.4659 45.219C71.3559 45.4436 71.2223 45.6558 71.0673 45.852Z" fill="#2B57A6"/>
<path d="M62.2529 37.671C61.995 37.5538 61.9012 37.4131 62.0536 37.1552C63.1203 35.3853 62.9796 34.6702 61.4089 33.416H72.6618C73.7519 33.416 74.8303 33.416 75.9087 33.416C78.0889 33.4981 79.2142 35.2798 78.0654 36.7801C77.8115 37.0928 77.4864 37.34 77.1172 37.5012C76.7481 37.6623 76.3457 37.7326 75.9438 37.7062C74.6075 37.7062 73.2713 37.7062 71.9467 37.7062L62.2529 37.671Z" fill="background: #2B57A6;
"/>
<path d="M62.9097 45.8056C63.0949 45.6688 63.2675 45.5159 63.4255 45.3485C63.869 44.9952 64.1824 44.5045 64.3163 43.9536C64.3497 43.6262 64.302 43.2955 64.1772 42.9909C64.0525 42.6863 63.8547 42.4171 63.6013 42.2071C63.3002 41.9508 62.9649 41.7378 62.605 41.5741H70.3178C73.9985 41.5741 77.6791 41.5741 81.3597 41.5741C83.8447 41.5741 85.3333 42.9573 84.5245 44.3873C84.271 44.8213 83.8848 45.1624 83.4227 45.3602C83.0051 45.5257 82.5677 45.636 82.1216 45.6884C80.8205 45.876 63.1559 45.7939 62.9097 45.8056Z" fill="background: #2B57A6;
"/>
<path d="M50.3665 20.9553C50.807 20.6502 51.1297 20.2034 51.2808 19.6893C51.3624 19.3503 51.3624 18.9968 51.2808 18.6578C51.1764 18.1112 50.9298 17.6018 50.5658 17.1809C50.4368 17.0402 50.2962 16.8996 50.1672 16.7472C51.9255 16.7472 53.6837 16.7472 55.4185 16.7472H62.8853C63.1876 16.7082 63.4948 16.7342 63.7863 16.8233C64.0778 16.9124 64.347 17.0626 64.5759 17.2639C64.8048 17.4652 64.9882 17.713 65.1138 17.9908C65.2394 18.2685 65.3044 18.5698 65.3044 18.8747C65.3044 19.1795 65.2394 19.4809 65.1138 19.7586C64.9882 20.0364 64.8048 20.2842 64.5759 20.4855C64.347 20.6868 64.0778 20.837 63.7863 20.9261C63.4948 21.0152 63.1876 21.0411 62.8853 21.0022H50.3665V20.9553Z" fill="background: #2B57A6;
"/>
<path d="M49.1944 29.1613C49.6398 28.587 50.3666 28.1298 50.4603 27.4499C50.4868 26.9333 50.3566 26.4208 50.0868 25.9794C49.817 25.5381 49.4201 25.1886 48.9482 24.9767C50.4135 24.9767 51.8787 24.9767 53.3439 24.9767H68.7344C69.3763 24.9033 70.0264 24.9889 70.6274 25.226C71.2284 25.4632 71.7618 25.8445 72.1806 26.3364C72.7081 27.1921 72.2744 28.165 71.0905 28.6807C70.4704 28.9988 69.783 29.1636 69.0861 29.1613H49.1944Z" fill="background: #2B57A6;
"/>
<path d="M33.8743 2.1774C33.8435 1.88709 33.8775 1.59356 33.9741 1.31804C34.0706 1.04252 34.2272 0.791918 34.4325 0.584366C34.6378 0.376814 34.8867 0.217507 35.1612 0.117977C35.4356 0.0184468 35.7288 -0.0188161 36.0194 0.00888556C36.2851 -0.00209376 36.5505 0.0396249 36.8 0.131638C37.0496 0.223651 37.2785 0.364139 37.4735 0.545008C37.6686 0.725877 37.8259 0.943551 37.9364 1.18549C38.0469 1.42743 38.1085 1.68885 38.1176 1.95468V2.13051C38.1356 2.41735 38.0915 2.7047 37.988 2.97286C37.8846 3.24102 37.7244 3.48364 37.5184 3.68406C37.3124 3.88449 37.0655 4.03798 36.7946 4.13401C36.5237 4.23004 36.2353 4.26634 35.9491 4.24041C35.6732 4.25739 35.3968 4.21576 35.1382 4.11825C34.8796 4.02074 34.6445 3.86957 34.4485 3.67468C34.2525 3.47979 34.1 3.24561 34.0011 2.98754C33.9021 2.72947 33.8589 2.45336 33.8743 2.1774Z" fill="background: #2B57A6;
"/>
<path d="M57.9268 10.4412C57.9084 10.9757 57.6807 11.4816 57.2929 11.8499C56.905 12.2182 56.388 12.4194 55.8533 12.4101C55.3185 12.4009 54.8088 12.182 54.4339 11.8006C54.059 11.4191 53.8489 10.9057 53.8489 10.3709C53.8489 9.83603 54.059 9.3226 54.4339 8.94116C54.8088 8.55973 55.3185 8.34083 55.8533 8.3316C56.388 8.32238 56.905 8.52358 57.2929 8.89186C57.6807 9.26014 57.9084 9.76602 57.9268 10.3005V10.4412Z" fill="background: #2B57A6;
"/>
</svg>
