<svg width="219" height="219" viewBox="0 0 219 219" fill="none" xmlns="http://www.w3.org/2000/svg">
<g filter="url(#filter0_d_201_388)">
<path d="M45.4748 100.922H17.2356C13.7317 91.6312 0.18364 93.9298 0.000411987 104C0.184448 114.071 13.7333 116.368 17.2356 107.078H45.4748L45.4748 126.409H37.4879C33.8589 117.267 20.4864 119.664 20.3125 129.641C20.5071 139.803 34.2253 142.003 37.5993 132.565H48.5213C50.204 132.565 51.5682 131.187 51.5682 129.487L51.5682 107.078L67.7235 107.078L67.7235 122.306C67.7235 123.406 68.3045 124.422 69.247 124.972L78.507 130.374L54.665 147.901H17.2352C13.7312 138.61 0.183212 140.909 0 150.979C0.184036 161.05 13.7329 163.347 17.2352 154.058H52.6094V168.966C43.6609 172.715 46.096 186.11 55.9102 186.279C66.0278 186.075 68.1399 172.099 58.7031 168.778V152.546L84.2818 133.743L101.475 143.772L101.475 166.441H91.3721C87.8682 157.151 74.3202 159.449 74.137 169.519C74.321 179.591 87.8698 181.887 91.3721 172.598H101.475V190.586C92.2797 194.126 94.5551 207.815 104.522 208C114.49 207.814 116.762 194.125 107.568 190.586V172.598H116.627C120.131 181.888 133.679 179.59 133.863 169.519C133.679 159.448 120.13 157.152 116.627 166.441H107.568L107.568 143.163L123.718 133.743L149.297 152.546V168.778C139.858 172.101 141.975 186.076 152.09 186.279C156.029 186.279 156.029 180.122 152.09 180.122C150.55 180.122 149.297 178.856 149.297 177.3C149.339 174.119 153.699 173.401 154.739 176.4C155.993 180.173 161.77 178.212 160.515 174.439C159.666 171.887 157.762 169.923 155.391 168.965V154.058H190.765C194.269 163.348 207.817 161.049 208 150.979C207.816 140.907 194.267 138.611 190.765 147.9H153.335L129.493 130.374L138.753 124.972C139.696 124.422 140.277 123.406 140.277 122.306V107.078H156.432V129.487C156.432 131.187 157.796 132.565 159.479 132.565H170.401C173.777 142.004 187.494 139.801 187.688 129.641C187.513 119.662 174.139 117.268 170.512 126.408H162.525V107.078H190.765C194.269 116.369 207.817 114.07 208 104C207.816 93.9286 194.267 91.6325 190.765 100.922H162.526L162.526 81.5914H170.401C173.777 91.0303 187.494 88.827 187.687 78.6669C187.513 68.6882 174.139 66.294 170.512 75.4345H159.478C157.796 75.4345 156.431 76.8129 156.431 78.513L156.431 100.922H140.276V83.5386C140.276 82.4386 139.695 81.4227 138.753 80.8727L129.493 75.4711L153.335 57.9445H190.765C194.269 67.2352 207.817 64.9362 208 54.866C207.816 44.7946 194.267 42.4985 190.765 51.7876H155.391V36.8793C164.339 33.1297 161.904 19.7353 152.09 19.5666C141.972 19.7698 139.86 33.7463 149.297 37.0673V53.2989L123.718 72.1024L107.047 62.3778V39.4041L116.628 39.4041C120.132 48.6944 133.68 46.3958 133.863 36.3256C133.679 26.2542 120.13 23.9581 116.628 33.2471L107.047 33.2471V17.4137C116.242 13.8735 113.967 0.18512 104 0C94.0318 0.185944 91.7593 13.8751 100.953 17.4137V33.2471H91.3721C87.8682 23.9568 74.3202 26.2554 74.137 36.3256C74.321 46.397 87.8698 48.6931 91.3721 39.4041H100.953V62.3778L84.2818 72.1024L58.7031 53.2989V37.0673C68.1415 33.7442 66.0262 19.7689 55.9102 19.5666C46.0948 19.7361 43.6625 33.1314 52.6094 36.8793V51.7876H17.2352C13.7312 42.4973 0.183212 44.7958 0 54.866C0.184036 64.9375 13.7329 67.2336 17.2352 57.9445H54.665L78.507 75.4711L69.3046 80.839C65.8929 82.8289 68.9398 88.1616 72.3515 86.1709L104 67.7097L134.183 85.3163V120.529L104 138.135L73.8173 120.529L73.8173 99.8769C73.8173 95.8967 67.7235 95.8967 67.7235 99.8769V100.922L51.5682 100.922V78.513C51.5682 76.8129 50.204 75.4345 48.5213 75.4345H37.4875C33.8585 66.2928 20.486 68.6899 20.3121 78.6669C20.5067 88.8286 34.2249 91.0287 37.5988 81.5914H45.474L45.4748 100.922ZM8.88672 106.822C7.34662 106.822 6.09375 105.556 6.09375 104C6.22498 100.265 11.5493 100.266 11.6797 104C11.6797 105.556 10.4268 106.822 8.88672 106.822ZM29.1992 132.463C27.6591 132.463 26.4062 131.197 26.4062 129.641C26.5375 125.906 31.8618 125.907 31.9922 129.641C31.9922 131.197 30.7393 132.463 29.1992 132.463ZM8.88672 153.801C7.34662 153.801 6.09375 152.535 6.09375 150.979C6.22498 147.244 11.5493 147.245 11.6797 150.979C11.6797 152.535 10.4268 153.801 8.88672 153.801ZM55.9102 180.122C54.3701 180.122 53.1172 178.856 53.1172 177.3C53.2484 173.565 58.5727 173.566 58.7031 177.3C58.7031 178.856 57.4503 180.122 55.9102 180.122ZM83.0237 172.341C81.4836 172.341 80.2307 171.076 80.2307 169.519C80.3619 165.785 85.6863 165.786 85.8167 169.519C85.8167 171.076 84.5638 172.341 83.0237 172.341ZM104.522 201.843C102.982 201.843 101.729 200.577 101.729 199.021C101.86 195.286 107.184 195.287 107.315 199.021C107.315 200.577 106.062 201.843 104.522 201.843ZM124.976 166.698C126.516 166.698 127.769 167.963 127.769 169.519C127.638 173.254 122.314 173.253 122.183 169.519C122.183 167.963 123.436 166.698 124.976 166.698ZM199.113 148.157C200.653 148.157 201.906 149.423 201.906 150.979C201.775 154.714 196.451 154.713 196.32 150.979C196.32 149.423 197.573 148.157 199.113 148.157ZM178.801 126.819C180.341 126.819 181.594 128.085 181.594 129.641C181.463 133.376 176.138 133.375 176.008 129.641C176.008 128.085 177.261 126.819 178.801 126.819ZM199.113 101.178C200.653 101.178 201.906 102.444 201.906 104C201.775 107.735 196.451 107.734 196.32 104C196.32 102.444 197.573 101.178 199.113 101.178ZM178.801 75.845C180.341 75.845 181.594 77.1108 181.594 78.6669C181.463 82.4016 176.138 82.4008 176.008 78.6669C176.008 77.1108 177.261 75.845 178.801 75.845ZM199.113 52.0441C200.653 52.0441 201.906 53.31 201.906 54.866C201.775 58.6008 196.451 58.6 196.32 54.866C196.32 53.31 197.573 52.0441 199.113 52.0441ZM152.09 25.7234C153.63 25.7234 154.883 26.9893 154.883 28.5453C154.932 32.2547 149.294 32.4652 149.297 28.5453C149.297 26.9893 150.55 25.7234 152.09 25.7234ZM124.976 33.5037C126.516 33.5037 127.769 34.7696 127.769 36.3256C127.769 37.8817 126.516 39.1475 124.976 39.1475C122.941 39.1475 122.404 37.5496 122.211 35.9509C122.393 34.5717 123.562 33.5037 124.976 33.5037ZM104 6.15688C105.54 6.15688 106.793 7.42273 106.793 8.97879C106.662 12.7135 101.337 12.7127 101.207 8.97879C101.207 7.42273 102.46 6.15688 104 6.15688ZM83.0237 39.1475C81.4836 39.1475 80.2307 37.8817 80.2307 36.3256C80.3173 32.8182 85.2569 32.5083 85.789 35.9509C85.7561 36.2008 85.7561 36.4504 85.789 36.7003C85.6066 38.0795 84.4378 39.1475 83.0237 39.1475ZM55.9102 25.7234C57.4503 25.7234 58.7031 26.9893 58.7031 28.5453C58.5719 32.2801 53.2476 32.2793 53.1172 28.5453C53.1172 26.9893 54.3701 25.7234 55.9102 25.7234ZM8.88672 57.6879C7.34662 57.6879 6.09375 56.4221 6.09375 54.866C6.16809 51.4535 10.9306 51.0221 11.6277 54.3287C11.5631 54.676 11.5631 55.0561 11.6277 55.4033C11.3783 56.7032 10.2448 57.6879 8.88672 57.6879ZM29.1992 81.4888C27.6591 81.4888 26.4062 80.2229 26.4062 78.6669C26.5375 74.9321 31.8618 74.9329 31.9922 78.6669C31.9922 80.2229 30.7393 81.4888 29.1992 81.4888Z" fill="url(#paint0_linear_201_388)" shape-rendering="crispEdges"/>
</g>
<defs>
<filter id="filter0_d_201_388" x="0" y="0" width="219" height="219" filterUnits="userSpaceOnUse" color-interpolation-filters="sRGB">
<feFlood flood-opacity="0" result="BackgroundImageFix"/>
<feColorMatrix in="SourceAlpha" type="matrix" values="0 0 0 0 0 0 0 0 0 0 0 0 0 0 0 0 0 0 127 0" result="hardAlpha"/>
<feOffset dx="7" dy="7"/>
<feGaussianBlur stdDeviation="2"/>
<feComposite in2="hardAlpha" operator="out"/>
<feColorMatrix type="matrix" values="0 0 0 0 0 0 0 0 0 0 0 0 0 0 0 0 0 0 0.25 0"/>
<feBlend mode="normal" in2="BackgroundImageFix" result="effect1_dropShadow_201_388"/>
<feBlend mode="normal" in="SourceGraphic" in2="effect1_dropShadow_201_388" result="shape"/>
</filter>
<linearGradient id="paint0_linear_201_388" x1="207.818" y1="104" x2="0.181658" y2="104" gradientUnits="userSpaceOnUse">
<stop stop-color="#FF4A4A" stop-opacity="0.84"/>
<stop offset="0.514966" stop-color="#867FF4"/>
<stop offset="1" stop-color="#7B5AFF" stop-opacity="0.84"/>
</linearGradient>
</defs>
</svg>
