<svg width="250" height="250" viewBox="0 0 250 250" fill="none" xmlns="http://www.w3.org/2000/svg">
<g filter="url(#filter0_b_190_923)">
<rect width="250" height="250" rx="125" fill="url(#paint0_linear_190_923)"/>
<rect width="250" height="250" rx="125" fill="url(#paint1_linear_190_923)" fill-opacity="0.2"/>
<path d="M55.38 190C55.0067 190 54.72 189.84 54.52 189.52C54.32 189.2 54.3 188.86 54.46 188.5L60.08 175.08C60.28 174.613 60.6067 174.38 61.06 174.38C61.54 174.38 61.8667 174.613 62.04 175.08L67.68 188.54C67.8267 188.913 67.8 189.253 67.6 189.56C67.4133 189.853 67.1267 190 66.74 190C66.54 190 66.3467 189.947 66.16 189.84C65.9867 189.72 65.86 189.56 65.78 189.36L60.82 177.04H61.38L56.34 189.36C56.2467 189.573 56.1067 189.733 55.92 189.84C55.7467 189.947 55.5667 190 55.38 190ZM56.44 186.56L57.24 184.84H65.08L65.88 186.56H56.44ZM76.5625 190.1C75.6425 190.1 74.8158 189.907 74.0825 189.52C73.3625 189.12 72.7892 188.54 72.3625 187.78C71.9492 187.02 71.7425 186.087 71.7425 184.98V180.06C71.7425 179.767 71.8358 179.527 72.0225 179.34C72.2225 179.14 72.4692 179.04 72.7625 179.04C73.0558 179.04 73.2958 179.14 73.4825 179.34C73.6825 179.527 73.7825 179.767 73.7825 180.06V184.98C73.7825 185.727 73.9225 186.347 74.2025 186.84C74.4825 187.32 74.8625 187.68 75.3425 187.92C75.8225 188.147 76.3625 188.26 76.9625 188.26C77.5358 188.26 78.0425 188.147 78.4825 187.92C78.9358 187.693 79.2958 187.387 79.5625 187C79.8292 186.613 79.9625 186.18 79.9625 185.7H81.2225C81.2225 186.527 81.0158 187.273 80.6025 187.94C80.2025 188.607 79.6492 189.133 78.9425 189.52C78.2492 189.907 77.4558 190.1 76.5625 190.1ZM80.9825 190C80.6892 190 80.4425 189.907 80.2425 189.72C80.0558 189.52 79.9625 189.273 79.9625 188.98V180.06C79.9625 179.753 80.0558 179.507 80.2425 179.32C80.4425 179.133 80.6892 179.04 80.9825 179.04C81.2892 179.04 81.5358 179.133 81.7225 179.32C81.9092 179.507 82.0025 179.753 82.0025 180.06V188.98C82.0025 189.273 81.9092 189.52 81.7225 189.72C81.5358 189.907 81.2892 190 80.9825 190ZM91.6753 190C91.0086 190 90.4086 189.833 89.8753 189.5C89.342 189.153 88.922 188.687 88.6153 188.1C88.3086 187.513 88.1553 186.853 88.1553 186.12V176.58C88.1553 176.287 88.2486 176.047 88.4353 175.86C88.622 175.673 88.862 175.58 89.1553 175.58C89.4486 175.58 89.6886 175.673 89.8753 175.86C90.062 176.047 90.1553 176.287 90.1553 176.58V186.12C90.1553 186.653 90.302 187.1 90.5953 187.46C90.8886 187.82 91.2486 188 91.6753 188H92.3553C92.5953 188 92.7953 188.093 92.9553 188.28C93.1286 188.467 93.2153 188.707 93.2153 189C93.2153 189.293 93.102 189.533 92.8753 189.72C92.662 189.907 92.382 190 92.0353 190H91.6753ZM87.2353 181.18C86.9553 181.18 86.7286 181.1 86.5553 180.94C86.382 180.78 86.2953 180.58 86.2953 180.34C86.2953 180.073 86.382 179.86 86.5553 179.7C86.7286 179.54 86.9553 179.46 87.2353 179.46H91.8553C92.1353 179.46 92.362 179.54 92.5353 179.7C92.7086 179.86 92.7953 180.073 92.7953 180.34C92.7953 180.58 92.7086 180.78 92.5353 180.94C92.362 181.1 92.1353 181.18 91.8553 181.18H87.2353ZM102.783 190.08C101.703 190.08 100.749 189.847 99.9227 189.38C99.096 188.9 98.4427 188.247 97.9627 187.42C97.496 186.58 97.2627 185.62 97.2627 184.54C97.2627 183.447 97.496 182.487 97.9627 181.66C98.4427 180.82 99.096 180.167 99.9227 179.7C100.749 179.22 101.703 178.98 102.783 178.98C103.849 178.98 104.796 179.22 105.623 179.7C106.449 180.167 107.096 180.82 107.563 181.66C108.043 182.487 108.283 183.447 108.283 184.54C108.283 185.62 108.049 186.58 107.583 187.42C107.116 188.247 106.469 188.9 105.643 189.38C104.816 189.847 103.863 190.08 102.783 190.08ZM102.783 188.28C103.476 188.28 104.089 188.12 104.623 187.8C105.156 187.48 105.569 187.04 105.863 186.48C106.169 185.92 106.323 185.273 106.323 184.54C106.323 183.807 106.169 183.16 105.863 182.6C105.569 182.027 105.156 181.58 104.623 181.26C104.089 180.94 103.476 180.78 102.783 180.78C102.089 180.78 101.476 180.94 100.943 181.26C100.409 181.58 99.9893 182.027 99.6827 182.6C99.376 183.16 99.2227 183.807 99.2227 184.54C99.2227 185.273 99.376 185.92 99.6827 186.48C99.9893 187.04 100.409 187.48 100.943 187.8C101.476 188.12 102.089 188.28 102.783 188.28ZM127.779 190.02C127.485 190.02 127.239 189.927 127.039 189.74C126.852 189.54 126.759 189.293 126.759 189V183.28C126.759 182.44 126.552 181.82 126.139 181.42C125.725 181.007 125.185 180.8 124.519 180.8C123.825 180.8 123.252 181.04 122.799 181.52C122.359 182 122.139 182.613 122.139 183.36H120.479C120.479 182.493 120.665 181.733 121.039 181.08C121.412 180.413 121.932 179.893 122.599 179.52C123.279 179.147 124.052 178.96 124.919 178.96C125.679 178.96 126.352 179.127 126.939 179.46C127.525 179.793 127.979 180.287 128.299 180.94C128.632 181.58 128.799 182.36 128.799 183.28V189C128.799 189.293 128.705 189.54 128.519 189.74C128.332 189.927 128.085 190.02 127.779 190.02ZM114.439 190.02C114.145 190.02 113.899 189.927 113.699 189.74C113.512 189.54 113.419 189.293 113.419 189V180.1C113.419 179.793 113.512 179.547 113.699 179.36C113.899 179.173 114.145 179.08 114.439 179.08C114.745 179.08 114.992 179.173 115.179 179.36C115.365 179.547 115.459 179.793 115.459 180.1V189C115.459 189.293 115.365 189.54 115.179 189.74C114.992 189.927 114.745 190.02 114.439 190.02ZM121.119 190.02C120.825 190.02 120.579 189.927 120.379 189.74C120.192 189.54 120.099 189.293 120.099 189V183.28C120.099 182.44 119.892 181.82 119.479 181.42C119.065 181.007 118.525 180.8 117.859 180.8C117.165 180.8 116.592 181.04 116.139 181.52C115.685 182 115.459 182.613 115.459 183.36H114.199C114.199 182.493 114.372 181.733 114.719 181.08C115.065 180.413 115.545 179.893 116.159 179.52C116.772 179.147 117.472 178.96 118.259 178.96C119.019 178.96 119.692 179.127 120.279 179.46C120.865 179.793 121.319 180.287 121.639 180.94C121.972 181.58 122.139 182.36 122.139 183.28V189C122.139 189.293 122.045 189.54 121.859 189.74C121.672 189.927 121.425 190.02 121.119 190.02ZM138.848 190.08C137.875 190.08 137.002 189.84 136.228 189.36C135.455 188.867 134.842 188.207 134.388 187.38C133.948 186.54 133.728 185.593 133.728 184.54C133.728 183.487 133.968 182.54 134.448 181.7C134.942 180.86 135.602 180.2 136.428 179.72C137.268 179.227 138.208 178.98 139.248 178.98C140.288 178.98 141.222 179.227 142.048 179.72C142.875 180.2 143.528 180.86 144.008 181.7C144.502 182.54 144.748 183.487 144.748 184.54H143.968C143.968 185.593 143.742 186.54 143.288 187.38C142.848 188.207 142.242 188.867 141.468 189.36C140.695 189.84 139.822 190.08 138.848 190.08ZM139.248 188.28C139.928 188.28 140.535 188.12 141.068 187.8C141.602 187.467 142.022 187.02 142.328 186.46C142.635 185.887 142.788 185.247 142.788 184.54C142.788 183.82 142.635 183.18 142.328 182.62C142.022 182.047 141.602 181.6 141.068 181.28C140.535 180.947 139.928 180.78 139.248 180.78C138.582 180.78 137.975 180.947 137.428 181.28C136.895 181.6 136.468 182.047 136.148 182.62C135.842 183.18 135.688 183.82 135.688 184.54C135.688 185.247 135.842 185.887 136.148 186.46C136.468 187.02 136.895 187.467 137.428 187.8C137.975 188.12 138.582 188.28 139.248 188.28ZM143.728 190.02C143.435 190.02 143.188 189.927 142.988 189.74C142.802 189.54 142.708 189.293 142.708 189V185.94L143.088 183.82L144.748 184.54V189C144.748 189.293 144.648 189.54 144.448 189.74C144.262 189.927 144.022 190.02 143.728 190.02ZM153.864 190C153.198 190 152.598 189.833 152.064 189.5C151.531 189.153 151.111 188.687 150.804 188.1C150.498 187.513 150.344 186.853 150.344 186.12V176.58C150.344 176.287 150.438 176.047 150.624 175.86C150.811 175.673 151.051 175.58 151.344 175.58C151.638 175.58 151.878 175.673 152.064 175.86C152.251 176.047 152.344 176.287 152.344 176.58V186.12C152.344 186.653 152.491 187.1 152.784 187.46C153.078 187.82 153.438 188 153.864 188H154.544C154.784 188 154.984 188.093 155.144 188.28C155.318 188.467 155.404 188.707 155.404 189C155.404 189.293 155.291 189.533 155.064 189.72C154.851 189.907 154.571 190 154.224 190H153.864ZM149.424 181.18C149.144 181.18 148.918 181.1 148.744 180.94C148.571 180.78 148.484 180.58 148.484 180.34C148.484 180.073 148.571 179.86 148.744 179.7C148.918 179.54 149.144 179.46 149.424 179.46H154.044C154.324 179.46 154.551 179.54 154.724 179.7C154.898 179.86 154.984 180.073 154.984 180.34C154.984 180.58 154.898 180.78 154.724 180.94C154.551 181.1 154.324 181.18 154.044 181.18H149.424ZM161.232 190C160.938 190 160.692 189.907 160.492 189.72C160.305 189.52 160.212 189.273 160.212 188.98V180.08C160.212 179.773 160.305 179.527 160.492 179.34C160.692 179.153 160.938 179.06 161.232 179.06C161.538 179.06 161.785 179.153 161.972 179.34C162.158 179.527 162.252 179.773 162.252 180.08V188.98C162.252 189.273 162.158 189.52 161.972 189.72C161.785 189.907 161.538 190 161.232 190ZM161.232 177.28C160.872 177.28 160.558 177.153 160.292 176.9C160.038 176.633 159.912 176.32 159.912 175.96C159.912 175.6 160.038 175.293 160.292 175.04C160.558 174.773 160.872 174.64 161.232 174.64C161.592 174.64 161.898 174.773 162.152 175.04C162.418 175.293 162.552 175.6 162.552 175.96C162.552 176.32 162.418 176.633 162.152 176.9C161.898 177.153 161.592 177.28 161.232 177.28ZM173.107 190.08C172.027 190.08 171.074 189.847 170.247 189.38C169.42 188.9 168.767 188.247 168.287 187.42C167.82 186.58 167.587 185.62 167.587 184.54C167.587 183.447 167.82 182.487 168.287 181.66C168.767 180.82 169.42 180.167 170.247 179.7C171.074 179.22 172.027 178.98 173.107 178.98C174.174 178.98 175.12 179.22 175.947 179.7C176.774 180.167 177.42 180.82 177.887 181.66C178.367 182.487 178.607 183.447 178.607 184.54C178.607 185.62 178.374 186.58 177.907 187.42C177.44 188.247 176.794 188.9 175.967 189.38C175.14 189.847 174.187 190.08 173.107 190.08ZM173.107 188.28C173.8 188.28 174.414 188.12 174.947 187.8C175.48 187.48 175.894 187.04 176.187 186.48C176.494 185.92 176.647 185.273 176.647 184.54C176.647 183.807 176.494 183.16 176.187 182.6C175.894 182.027 175.48 181.58 174.947 181.26C174.414 180.94 173.8 180.78 173.107 180.78C172.414 180.78 171.8 180.94 171.267 181.26C170.734 181.58 170.314 182.027 170.007 182.6C169.7 183.16 169.547 183.807 169.547 184.54C169.547 185.273 169.7 185.92 170.007 186.48C170.314 187.04 170.734 187.48 171.267 187.8C171.8 188.12 172.414 188.28 173.107 188.28ZM192.983 190.02C192.69 190.02 192.443 189.927 192.243 189.74C192.056 189.54 191.963 189.293 191.963 189V184.08C191.963 183.32 191.823 182.7 191.543 182.22C191.263 181.74 190.883 181.387 190.403 181.16C189.936 180.92 189.396 180.8 188.783 180.8C188.223 180.8 187.716 180.913 187.263 181.14C186.81 181.367 186.45 181.673 186.183 182.06C185.916 182.433 185.783 182.867 185.783 183.36H184.523C184.523 182.52 184.723 181.773 185.123 181.12C185.536 180.453 186.096 179.927 186.803 179.54C187.51 179.153 188.303 178.96 189.183 178.96C190.103 178.96 190.923 179.16 191.643 179.56C192.376 179.947 192.95 180.52 193.363 181.28C193.79 182.04 194.003 182.973 194.003 184.08V189C194.003 189.293 193.903 189.54 193.703 189.74C193.516 189.927 193.276 190.02 192.983 190.02ZM184.763 190.02C184.47 190.02 184.223 189.927 184.023 189.74C183.836 189.54 183.743 189.293 183.743 189V180.08C183.743 179.773 183.836 179.527 184.023 179.34C184.223 179.153 184.47 179.06 184.763 179.06C185.07 179.06 185.316 179.153 185.503 179.34C185.69 179.527 185.783 179.773 185.783 180.08V189C185.783 189.293 185.69 189.54 185.503 189.74C185.316 189.927 185.07 190.02 184.763 190.02Z" fill="white"/>
</g>
<defs>
<filter id="filter0_b_190_923" x="-30" y="-30" width="310" height="310" filterUnits="userSpaceOnUse" color-interpolation-filters="sRGB">
<feFlood flood-opacity="0" result="BackgroundImageFix"/>
<feGaussianBlur in="BackgroundImage" stdDeviation="15"/>
<feComposite in2="SourceAlpha" operator="in" result="effect1_backgroundBlur_190_923"/>
<feBlend mode="normal" in="SourceGraphic" in2="effect1_backgroundBlur_190_923" result="shape"/>
</filter>
<linearGradient id="paint0_linear_190_923" x1="0" y1="125" x2="250" y2="125" gradientUnits="userSpaceOnUse">
<stop offset="0.192708" stop-color="#8A877A" stop-opacity="0.2"/>
<stop offset="0.9999" stop-color="#699CFF"/>
<stop offset="1" stop-color="white" stop-opacity="0.2"/>
</linearGradient>
<linearGradient id="paint1_linear_190_923" x1="250" y1="125" x2="0" y2="125" gradientUnits="userSpaceOnUse">
<stop stop-color="white"/>
<stop offset="1" stop-opacity="0"/>
<stop offset="1" stop-color="#1D44CE" stop-opacity="0.49"/>
</linearGradient>
</defs>
</svg>
