<svg width="277" height="153" viewBox="0 0 277 153" fill="none" xmlns="http://www.w3.org/2000/svg">
<path d="M1.90227 5.30918C3.94065 1.38921 8.77085 -0.136119 12.6908 1.90227C16.6108 3.94065 18.1361 8.77085 16.0977 12.6908C14.0593 16.6108 9.22915 18.1361 5.30918 16.0977C1.38921 14.0593 -0.136119 9.22915 1.90227 5.30918ZM276.595 146.954C276.845 147.744 276.407 148.587 275.617 148.836L262.743 152.901C261.953 153.151 261.111 152.713 260.861 151.923C260.612 151.133 261.05 150.29 261.84 150.041L273.283 146.427L269.669 134.984C269.42 134.194 269.858 133.352 270.648 133.102C271.438 132.853 272.281 133.291 272.53 134.081L276.595 146.954ZM9.69203 7.66917L275.857 146.075L274.473 148.737L8.30797 10.3308L9.69203 7.66917Z" fill="url(#paint0_linear_190_915)"/>
<defs>
<linearGradient id="paint0_linear_190_915" x1="275.165" y1="147.406" x2="9" y2="9" gradientUnits="userSpaceOnUse">
<stop stop-color="white" stop-opacity="0.99"/>
<stop offset="1" stop-opacity="0"/>
</linearGradient>
</defs>
</svg>
