<svg width="277" height="153" viewBox="0 0 277 153" fill="none" xmlns="http://www.w3.org/2000/svg">
<path d="M275.098 5.30918C273.059 1.38921 268.229 -0.136119 264.309 1.90227C260.389 3.94065 258.864 8.77085 260.902 12.6908C262.941 16.6108 267.771 18.1361 271.691 16.0977C275.611 14.0593 277.136 9.22915 275.098 5.30918ZM0.404576 146.954C0.155112 147.744 0.593281 148.587 1.38325 148.836L14.2566 152.901C15.0466 153.151 15.8892 152.713 16.1387 151.923C16.3882 151.133 15.95 150.29 15.16 150.041L3.71702 146.427L7.3306 134.984C7.58007 134.194 7.1419 133.352 6.35193 133.102C5.56195 132.853 4.71933 133.291 4.46987 134.081L0.404576 146.954ZM267.308 7.66917L1.14293 146.075L2.52699 148.737L268.692 10.3308L267.308 7.66917Z" fill="url(#paint0_linear_190_914)"/>
<defs>
<linearGradient id="paint0_linear_190_914" x1="1.83496" y1="147.406" x2="268" y2="9" gradientUnits="userSpaceOnUse">
<stop stop-color="white" stop-opacity="0.99"/>
<stop offset="1" stop-opacity="0"/>
</linearGradient>
</defs>
</svg>
