<svg width="250" height="250" viewBox="0 0 250 250" fill="none" xmlns="http://www.w3.org/2000/svg">
<g filter="url(#filter0_b_190_921)">
<rect x="250" y="250" width="250" height="250" rx="125" transform="rotate(-180 250 250)" fill="url(#paint0_linear_190_921)"/>
<rect x="250" y="250" width="250" height="250" rx="125" transform="rotate(-180 250 250)" fill="url(#paint1_linear_190_921)" fill-opacity="0.2"/>
<path d="M49.04 186C48.7467 186 48.5 185.9 48.3 185.7C48.1 185.5 48 185.253 48 184.96V171.42C48 171.113 48.1 170.867 48.3 170.68C48.5 170.48 48.7467 170.38 49.04 170.38H58.08C58.3867 170.38 58.6333 170.473 58.82 170.66C59.0067 170.833 59.1 171.067 59.1 171.36C59.1 171.64 59.0067 171.867 58.82 172.04C58.6333 172.213 58.3867 172.3 58.08 172.3H50.08V177.16H55.82C56.1267 177.16 56.3733 177.253 56.56 177.44C56.7467 177.613 56.84 177.84 56.84 178.12C56.84 178.4 56.7467 178.633 56.56 178.82C56.3733 178.993 56.1267 179.08 55.82 179.08H50.08V184.08H58.08C58.3867 184.08 58.6333 184.167 58.82 184.34C59.0067 184.513 59.1 184.74 59.1 185.02C59.1 185.313 59.0067 185.553 58.82 185.74C58.6333 185.913 58.3867 186 58.08 186H49.04ZM73.1439 186.02C72.8506 186.02 72.6039 185.927 72.4039 185.74C72.2172 185.54 72.1239 185.293 72.1239 185V180.08C72.1239 179.32 71.9839 178.7 71.7039 178.22C71.4239 177.74 71.0439 177.387 70.5639 177.16C70.0972 176.92 69.5572 176.8 68.9439 176.8C68.3839 176.8 67.8772 176.913 67.4239 177.14C66.9706 177.367 66.6106 177.673 66.3439 178.06C66.0772 178.433 65.9439 178.867 65.9439 179.36H64.6839C64.6839 178.52 64.8839 177.773 65.2839 177.12C65.6972 176.453 66.2572 175.927 66.9639 175.54C67.6706 175.153 68.4639 174.96 69.3439 174.96C70.2639 174.96 71.0839 175.16 71.8039 175.56C72.5372 175.947 73.1106 176.52 73.5239 177.28C73.9506 178.04 74.1639 178.973 74.1639 180.08V185C74.1639 185.293 74.0639 185.54 73.8639 185.74C73.6772 185.927 73.4372 186.02 73.1439 186.02ZM64.9239 186.02C64.6306 186.02 64.3839 185.927 64.1839 185.74C63.9972 185.54 63.9039 185.293 63.9039 185V176.08C63.9039 175.773 63.9972 175.527 64.1839 175.34C64.3839 175.153 64.6306 175.06 64.9239 175.06C65.2306 175.06 65.4772 175.153 65.6639 175.34C65.8506 175.527 65.9439 175.773 65.9439 176.08V185C65.9439 185.293 65.8506 185.54 65.6639 185.74C65.4772 185.927 65.2306 186.02 64.9239 186.02ZM84.1967 186.08C83.1967 186.08 82.3101 185.847 81.5367 185.38C80.7767 184.9 80.1767 184.247 79.7367 183.42C79.2967 182.58 79.0767 181.62 79.0767 180.54C79.0767 179.447 79.3101 178.487 79.7767 177.66C80.2567 176.82 80.9101 176.167 81.7367 175.7C82.5634 175.22 83.5167 174.98 84.5967 174.98C85.6634 174.98 86.6101 175.22 87.4367 175.7C88.2634 176.167 88.9101 176.82 89.3767 177.66C89.8567 178.487 90.0967 179.447 90.0967 180.54H88.9167C88.9167 181.62 88.7101 182.58 88.2967 183.42C87.8967 184.247 87.3434 184.9 86.6367 185.38C85.9301 185.847 85.1167 186.08 84.1967 186.08ZM84.5567 190.54C83.6101 190.54 82.7234 190.353 81.8967 189.98C81.0701 189.607 80.3701 189.06 79.7967 188.34C79.6234 188.113 79.5567 187.88 79.5967 187.64C79.6501 187.4 79.7834 187.207 79.9967 187.06C80.2367 186.9 80.4834 186.847 80.7367 186.9C81.0034 186.953 81.2167 187.087 81.3767 187.3C81.7367 187.753 82.1901 188.107 82.7367 188.36C83.2834 188.613 83.9034 188.74 84.5967 188.74C85.2367 188.74 85.8234 188.587 86.3567 188.28C86.9034 187.973 87.3367 187.52 87.6567 186.92C87.9767 186.32 88.1367 185.587 88.1367 184.72V181.88L88.7967 180.12L90.0967 180.54V184.86C90.0967 185.913 89.8634 186.867 89.3967 187.72C88.9301 188.587 88.2767 189.273 87.4367 189.78C86.6101 190.287 85.6501 190.54 84.5567 190.54ZM84.5967 184.28C85.2901 184.28 85.9034 184.12 86.4367 183.8C86.9701 183.48 87.3834 183.04 87.6767 182.48C87.9834 181.92 88.1367 181.273 88.1367 180.54C88.1367 179.807 87.9834 179.16 87.6767 178.6C87.3834 178.027 86.9701 177.58 86.4367 177.26C85.9034 176.94 85.2901 176.78 84.5967 176.78C83.9034 176.78 83.2901 176.94 82.7567 177.26C82.2234 177.58 81.8034 178.027 81.4967 178.6C81.1901 179.16 81.0367 179.807 81.0367 180.54C81.0367 181.273 81.1901 181.92 81.4967 182.48C81.8034 183.04 82.2234 183.48 82.7567 183.8C83.2901 184.12 83.9034 184.28 84.5967 184.28ZM96.4528 186C96.1595 186 95.9128 185.907 95.7128 185.72C95.5261 185.52 95.4328 185.273 95.4328 184.98V176.08C95.4328 175.773 95.5261 175.527 95.7128 175.34C95.9128 175.153 96.1595 175.06 96.4528 175.06C96.7595 175.06 97.0061 175.153 97.1928 175.34C97.3795 175.527 97.4728 175.773 97.4728 176.08V184.98C97.4728 185.273 97.3795 185.52 97.1928 185.72C97.0061 185.907 96.7595 186 96.4528 186ZM96.4528 173.28C96.0928 173.28 95.7795 173.153 95.5128 172.9C95.2595 172.633 95.1328 172.32 95.1328 171.96C95.1328 171.6 95.2595 171.293 95.5128 171.04C95.7795 170.773 96.0928 170.64 96.4528 170.64C96.8128 170.64 97.1195 170.773 97.3728 171.04C97.6395 171.293 97.7728 171.6 97.7728 171.96C97.7728 172.32 97.6395 172.633 97.3728 172.9C97.1195 173.153 96.8128 173.28 96.4528 173.28ZM112.608 186.02C112.315 186.02 112.068 185.927 111.868 185.74C111.681 185.54 111.588 185.293 111.588 185V180.08C111.588 179.32 111.448 178.7 111.168 178.22C110.888 177.74 110.508 177.387 110.028 177.16C109.561 176.92 109.021 176.8 108.408 176.8C107.848 176.8 107.341 176.913 106.888 177.14C106.435 177.367 106.075 177.673 105.808 178.06C105.541 178.433 105.408 178.867 105.408 179.36H104.148C104.148 178.52 104.348 177.773 104.748 177.12C105.161 176.453 105.721 175.927 106.428 175.54C107.135 175.153 107.928 174.96 108.808 174.96C109.728 174.96 110.548 175.16 111.268 175.56C112.001 175.947 112.575 176.52 112.988 177.28C113.415 178.04 113.628 178.973 113.628 180.08V185C113.628 185.293 113.528 185.54 113.328 185.74C113.141 185.927 112.901 186.02 112.608 186.02ZM104.388 186.02C104.095 186.02 103.848 185.927 103.648 185.74C103.461 185.54 103.368 185.293 103.368 185V176.08C103.368 175.773 103.461 175.527 103.648 175.34C103.848 175.153 104.095 175.06 104.388 175.06C104.695 175.06 104.941 175.153 105.128 175.34C105.315 175.527 105.408 175.773 105.408 176.08V185C105.408 185.293 105.315 185.54 105.128 185.74C104.941 185.927 104.695 186.02 104.388 186.02ZM124.241 186.08C123.134 186.08 122.147 185.847 121.281 185.38C120.427 184.9 119.754 184.247 119.261 183.42C118.781 182.58 118.541 181.62 118.541 180.54C118.541 179.447 118.767 178.487 119.221 177.66C119.687 176.82 120.327 176.167 121.141 175.7C121.954 175.22 122.887 174.98 123.941 174.98C124.981 174.98 125.874 175.213 126.621 175.68C127.367 176.133 127.934 176.767 128.321 177.58C128.721 178.38 128.921 179.307 128.921 180.36C128.921 180.613 128.834 180.827 128.661 181C128.487 181.16 128.267 181.24 128.001 181.24H119.941V179.64H127.941L127.121 180.2C127.107 179.533 126.974 178.94 126.721 178.42C126.467 177.887 126.107 177.467 125.641 177.16C125.174 176.853 124.607 176.7 123.941 176.7C123.181 176.7 122.527 176.867 121.981 177.2C121.447 177.533 121.041 177.993 120.761 178.58C120.481 179.153 120.341 179.807 120.341 180.54C120.341 181.273 120.507 181.927 120.841 182.5C121.174 183.073 121.634 183.527 122.221 183.86C122.807 184.193 123.481 184.36 124.241 184.36C124.654 184.36 125.074 184.287 125.501 184.14C125.941 183.98 126.294 183.8 126.561 183.6C126.761 183.453 126.974 183.38 127.201 183.38C127.441 183.367 127.647 183.433 127.821 183.58C128.047 183.78 128.167 184 128.181 184.24C128.194 184.48 128.087 184.687 127.861 184.86C127.407 185.22 126.841 185.513 126.161 185.74C125.494 185.967 124.854 186.08 124.241 186.08ZM138.372 186.08C137.265 186.08 136.279 185.847 135.412 185.38C134.559 184.9 133.885 184.247 133.392 183.42C132.912 182.58 132.672 181.62 132.672 180.54C132.672 179.447 132.899 178.487 133.352 177.66C133.819 176.82 134.459 176.167 135.272 175.7C136.085 175.22 137.019 174.98 138.072 174.98C139.112 174.98 140.005 175.213 140.752 175.68C141.499 176.133 142.065 176.767 142.452 177.58C142.852 178.38 143.052 179.307 143.052 180.36C143.052 180.613 142.965 180.827 142.792 181C142.619 181.16 142.399 181.24 142.132 181.24H134.072V179.64H142.072L141.252 180.2C141.239 179.533 141.105 178.94 140.852 178.42C140.599 177.887 140.239 177.467 139.772 177.16C139.305 176.853 138.739 176.7 138.072 176.7C137.312 176.7 136.659 176.867 136.112 177.2C135.579 177.533 135.172 177.993 134.892 178.58C134.612 179.153 134.472 179.807 134.472 180.54C134.472 181.273 134.639 181.927 134.972 182.5C135.305 183.073 135.765 183.527 136.352 183.86C136.939 184.193 137.612 184.36 138.372 184.36C138.785 184.36 139.205 184.287 139.632 184.14C140.072 183.98 140.425 183.8 140.692 183.6C140.892 183.453 141.105 183.38 141.332 183.38C141.572 183.367 141.779 183.433 141.952 183.58C142.179 183.78 142.299 184 142.312 184.24C142.325 184.48 142.219 184.687 141.992 184.86C141.539 185.22 140.972 185.513 140.292 185.74C139.625 185.967 138.985 186.08 138.372 186.08ZM148.734 179.16C148.734 178.36 148.927 177.647 149.314 177.02C149.714 176.38 150.247 175.873 150.914 175.5C151.581 175.127 152.314 174.94 153.114 174.94C153.914 174.94 154.507 175.073 154.894 175.34C155.294 175.593 155.447 175.9 155.354 176.26C155.314 176.447 155.234 176.593 155.114 176.7C155.007 176.793 154.881 176.853 154.734 176.88C154.587 176.907 154.427 176.9 154.254 176.86C153.401 176.687 152.634 176.673 151.954 176.82C151.274 176.967 150.734 177.24 150.334 177.64C149.947 178.04 149.754 178.547 149.754 179.16H148.734ZM148.754 186C148.434 186 148.187 185.92 148.014 185.76C147.841 185.587 147.754 185.333 147.754 185V176.06C147.754 175.74 147.841 175.493 148.014 175.32C148.187 175.147 148.434 175.06 148.754 175.06C149.087 175.06 149.334 175.147 149.494 175.32C149.667 175.48 149.754 175.727 149.754 176.06V185C149.754 185.32 149.667 185.567 149.494 185.74C149.334 185.913 149.087 186 148.754 186ZM160.8 186C160.507 186 160.26 185.907 160.06 185.72C159.874 185.52 159.78 185.273 159.78 184.98V176.08C159.78 175.773 159.874 175.527 160.06 175.34C160.26 175.153 160.507 175.06 160.8 175.06C161.107 175.06 161.354 175.153 161.54 175.34C161.727 175.527 161.82 175.773 161.82 176.08V184.98C161.82 185.273 161.727 185.52 161.54 185.72C161.354 185.907 161.107 186 160.8 186ZM160.8 173.28C160.44 173.28 160.127 173.153 159.86 172.9C159.607 172.633 159.48 172.32 159.48 171.96C159.48 171.6 159.607 171.293 159.86 171.04C160.127 170.773 160.44 170.64 160.8 170.64C161.16 170.64 161.467 170.773 161.72 171.04C161.987 171.293 162.12 171.6 162.12 171.96C162.12 172.32 161.987 172.633 161.72 172.9C161.467 173.153 161.16 173.28 160.8 173.28ZM176.956 186.02C176.662 186.02 176.416 185.927 176.216 185.74C176.029 185.54 175.936 185.293 175.936 185V180.08C175.936 179.32 175.796 178.7 175.516 178.22C175.236 177.74 174.856 177.387 174.376 177.16C173.909 176.92 173.369 176.8 172.756 176.8C172.196 176.8 171.689 176.913 171.236 177.14C170.782 177.367 170.422 177.673 170.156 178.06C169.889 178.433 169.756 178.867 169.756 179.36H168.496C168.496 178.52 168.696 177.773 169.096 177.12C169.509 176.453 170.069 175.927 170.776 175.54C171.482 175.153 172.276 174.96 173.156 174.96C174.076 174.96 174.896 175.16 175.616 175.56C176.349 175.947 176.922 176.52 177.336 177.28C177.762 178.04 177.976 178.973 177.976 180.08V185C177.976 185.293 177.876 185.54 177.676 185.74C177.489 185.927 177.249 186.02 176.956 186.02ZM168.736 186.02C168.442 186.02 168.196 185.927 167.996 185.74C167.809 185.54 167.716 185.293 167.716 185V176.08C167.716 175.773 167.809 175.527 167.996 175.34C168.196 175.153 168.442 175.06 168.736 175.06C169.042 175.06 169.289 175.153 169.476 175.34C169.662 175.527 169.756 175.773 169.756 176.08V185C169.756 185.293 169.662 185.54 169.476 185.74C169.289 185.927 169.042 186.02 168.736 186.02ZM188.008 186.08C187.008 186.08 186.122 185.847 185.348 185.38C184.588 184.9 183.988 184.247 183.548 183.42C183.108 182.58 182.888 181.62 182.888 180.54C182.888 179.447 183.122 178.487 183.588 177.66C184.068 176.82 184.722 176.167 185.548 175.7C186.375 175.22 187.328 174.98 188.408 174.98C189.475 174.98 190.422 175.22 191.248 175.7C192.075 176.167 192.722 176.82 193.188 177.66C193.668 178.487 193.908 179.447 193.908 180.54H192.728C192.728 181.62 192.522 182.58 192.108 183.42C191.708 184.247 191.155 184.9 190.448 185.38C189.742 185.847 188.928 186.08 188.008 186.08ZM188.368 190.54C187.422 190.54 186.535 190.353 185.708 189.98C184.882 189.607 184.182 189.06 183.608 188.34C183.435 188.113 183.368 187.88 183.408 187.64C183.462 187.4 183.595 187.207 183.808 187.06C184.048 186.9 184.295 186.847 184.548 186.9C184.815 186.953 185.028 187.087 185.188 187.3C185.548 187.753 186.002 188.107 186.548 188.36C187.095 188.613 187.715 188.74 188.408 188.74C189.048 188.74 189.635 188.587 190.168 188.28C190.715 187.973 191.148 187.52 191.468 186.92C191.788 186.32 191.948 185.587 191.948 184.72V181.88L192.608 180.12L193.908 180.54V184.86C193.908 185.913 193.675 186.867 193.208 187.72C192.742 188.587 192.088 189.273 191.248 189.78C190.422 190.287 189.462 190.54 188.368 190.54ZM188.408 184.28C189.102 184.28 189.715 184.12 190.248 183.8C190.782 183.48 191.195 183.04 191.488 182.48C191.795 181.92 191.948 181.273 191.948 180.54C191.948 179.807 191.795 179.16 191.488 178.6C191.195 178.027 190.782 177.58 190.248 177.26C189.715 176.94 189.102 176.78 188.408 176.78C187.715 176.78 187.102 176.94 186.568 177.26C186.035 177.58 185.615 178.027 185.308 178.6C185.002 179.16 184.848 179.807 184.848 180.54C184.848 181.273 185.002 181.92 185.308 182.48C185.615 183.04 186.035 183.48 186.568 183.8C187.102 184.12 187.715 184.28 188.408 184.28Z" fill="white"/>
</g>
<defs>
<filter id="filter0_b_190_921" x="-30" y="-30" width="310" height="310" filterUnits="userSpaceOnUse" color-interpolation-filters="sRGB">
<feFlood flood-opacity="0" result="BackgroundImageFix"/>
<feGaussianBlur in="BackgroundImage" stdDeviation="15"/>
<feComposite in2="SourceAlpha" operator="in" result="effect1_backgroundBlur_190_921"/>
<feBlend mode="normal" in="SourceGraphic" in2="effect1_backgroundBlur_190_921" result="shape"/>
</filter>
<linearGradient id="paint0_linear_190_921" x1="250" y1="375" x2="500" y2="375" gradientUnits="userSpaceOnUse">
<stop offset="0.192708" stop-color="#8A877A" stop-opacity="0.2"/>
<stop offset="0.9999" stop-color="#699CFF"/>
<stop offset="1" stop-color="white" stop-opacity="0.2"/>
</linearGradient>
<linearGradient id="paint1_linear_190_921" x1="500" y1="375" x2="250" y2="375" gradientUnits="userSpaceOnUse">
<stop stop-color="white"/>
<stop offset="1" stop-opacity="0"/>
<stop offset="1" stop-color="#1D44CE" stop-opacity="0.49"/>
</linearGradient>
</defs>
</svg>
