<svg width="38" height="46" viewBox="0 0 38 46" fill="none" xmlns="http://www.w3.org/2000/svg">
<g filter="url(#filter0_d_201_391)">
<path d="M17.3725 2.77988C16.7313 1.08946 15.2268 -0.00154589 13.5404 1.64416e-06C11.8541 0.00154918 10.351 1.09565 9.71222 2.78711C9.70127 2.81651 9.69032 2.84591 9.67984 2.87583L0.234709 29.7528C-0.46687 31.7497 0.457465 33.9848 2.29994 34.7452C4.14242 35.5066 6.20479 34.5032 6.90637 32.5069L8.38283 28.3049H18.63L20.0893 32.4961C20.6291 34.0452 21.987 35 23.4301 35C23.8485 35 24.275 34.9195 24.6895 34.7498C26.5339 33.9957 27.4654 31.7631 26.7691 29.7642L17.4096 2.88615C17.3986 2.85004 17.3858 2.81496 17.3725 2.77988ZM11.103 20.5667L13.5309 13.6575L15.9369 20.5667H11.103Z" fill="url(#paint0_linear_201_391)"/>
</g>
<defs>
<filter id="filter0_d_201_391" x="0" y="0" width="38" height="46" filterUnits="userSpaceOnUse" color-interpolation-filters="sRGB">
<feFlood flood-opacity="0" result="BackgroundImageFix"/>
<feColorMatrix in="SourceAlpha" type="matrix" values="0 0 0 0 0 0 0 0 0 0 0 0 0 0 0 0 0 0 127 0" result="hardAlpha"/>
<feOffset dx="7" dy="7"/>
<feGaussianBlur stdDeviation="2"/>
<feComposite in2="hardAlpha" operator="out"/>
<feColorMatrix type="matrix" values="0 0 0 0 0 0 0 0 0 0 0 0 0 0 0 0 0 0 0.25 0"/>
<feBlend mode="normal" in2="BackgroundImageFix" result="effect1_dropShadow_201_391"/>
<feBlend mode="normal" in="SourceGraphic" in2="effect1_dropShadow_201_391" result="shape"/>
</filter>
<linearGradient id="paint0_linear_201_391" x1="13.5" y1="0" x2="13.5" y2="35" gradientUnits="userSpaceOnUse">
<stop stop-color="white"/>
<stop offset="1" stop-color="#8DC5E0"/>
</linearGradient>
</defs>
</svg>
