<svg width="250" height="250" viewBox="0 0 250 250" fill="none" xmlns="http://www.w3.org/2000/svg">
<g filter="url(#filter0_b_190_920)">
<rect x="250" y="250" width="250" height="250" rx="125" transform="rotate(-180 250 250)" fill="url(#paint0_linear_190_920)"/>
<rect x="250" y="250" width="250" height="250" rx="125" transform="rotate(-180 250 250)" fill="url(#paint1_linear_190_920)" fill-opacity="0.2"/>
<path d="M68.04 185C67.7467 185 67.5 184.9 67.3 184.7C67.1 184.5 67 184.253 67 183.96V170.42C67 170.113 67.1 169.867 67.3 169.68C67.5 169.48 67.7467 169.38 68.04 169.38C68.44 169.38 68.7467 169.567 68.96 169.94L75.22 182.48H74.58L80.68 169.94C80.8933 169.567 81.2 169.38 81.6 169.38C81.8933 169.38 82.14 169.48 82.34 169.68C82.54 169.867 82.64 170.113 82.64 170.42V183.96C82.64 184.253 82.5333 184.5 82.32 184.7C82.12 184.9 81.88 185 81.6 185C81.3067 185 81.06 184.9 80.86 184.7C80.66 184.5 80.56 184.253 80.56 183.96V173.3L80.96 173.2L75.72 183.88C75.4933 184.227 75.1933 184.4 74.82 184.4C74.38 184.4 74.06 184.193 73.86 183.78L68.68 173.4L69.08 173.3V183.96C69.08 184.253 68.98 184.5 68.78 184.7C68.58 184.9 68.3333 185 68.04 185ZM89.7684 185C89.4751 185 89.2284 184.907 89.0284 184.72C88.8418 184.52 88.7484 184.273 88.7484 183.98V175.08C88.7484 174.773 88.8418 174.527 89.0284 174.34C89.2284 174.153 89.4751 174.06 89.7684 174.06C90.0751 174.06 90.3218 174.153 90.5084 174.34C90.6951 174.527 90.7884 174.773 90.7884 175.08V183.98C90.7884 184.273 90.6951 184.52 90.5084 184.72C90.3218 184.907 90.0751 185 89.7684 185ZM89.7684 172.28C89.4084 172.28 89.0951 172.153 88.8284 171.9C88.5751 171.633 88.4484 171.32 88.4484 170.96C88.4484 170.6 88.5751 170.293 88.8284 170.04C89.0951 169.773 89.4084 169.64 89.7684 169.64C90.1284 169.64 90.4351 169.773 90.6884 170.04C90.9551 170.293 91.0884 170.6 91.0884 170.96C91.0884 171.32 90.9551 171.633 90.6884 171.9C90.4351 172.153 90.1284 172.28 89.7684 172.28ZM101.244 185.08C100.244 185.08 99.3569 184.847 98.5836 184.38C97.8236 183.9 97.2236 183.247 96.7836 182.42C96.3436 181.58 96.1236 180.62 96.1236 179.54C96.1236 178.447 96.3569 177.487 96.8236 176.66C97.3036 175.82 97.9569 175.167 98.7836 174.7C99.6103 174.22 100.564 173.98 101.644 173.98C102.71 173.98 103.657 174.22 104.484 174.7C105.31 175.167 105.957 175.82 106.424 176.66C106.904 177.487 107.144 178.447 107.144 179.54H105.964C105.964 180.62 105.757 181.58 105.344 182.42C104.944 183.247 104.39 183.9 103.684 184.38C102.977 184.847 102.164 185.08 101.244 185.08ZM101.604 189.54C100.657 189.54 99.7703 189.353 98.9436 188.98C98.1169 188.607 97.4169 188.06 96.8436 187.34C96.6703 187.113 96.6036 186.88 96.6436 186.64C96.6969 186.4 96.8303 186.207 97.0436 186.06C97.2836 185.9 97.5303 185.847 97.7836 185.9C98.0503 185.953 98.2636 186.087 98.4236 186.3C98.7836 186.753 99.2369 187.107 99.7836 187.36C100.33 187.613 100.95 187.74 101.644 187.74C102.284 187.74 102.87 187.587 103.404 187.28C103.95 186.973 104.384 186.52 104.704 185.92C105.024 185.32 105.184 184.587 105.184 183.72V180.88L105.844 179.12L107.144 179.54V183.86C107.144 184.913 106.91 185.867 106.444 186.72C105.977 187.587 105.324 188.273 104.484 188.78C103.657 189.287 102.697 189.54 101.604 189.54ZM101.644 183.28C102.337 183.28 102.95 183.12 103.484 182.8C104.017 182.48 104.43 182.04 104.724 181.48C105.03 180.92 105.184 180.273 105.184 179.54C105.184 178.807 105.03 178.16 104.724 177.6C104.43 177.027 104.017 176.58 103.484 176.26C102.95 175.94 102.337 175.78 101.644 175.78C100.95 175.78 100.337 175.94 99.8036 176.26C99.2703 176.58 98.8503 177.027 98.5436 177.6C98.2369 178.16 98.0836 178.807 98.0836 179.54C98.0836 180.273 98.2369 180.92 98.5436 181.48C98.8503 182.04 99.2703 182.48 99.8036 182.8C100.337 183.12 100.95 183.28 101.644 183.28ZM113.26 178.16C113.26 177.36 113.453 176.647 113.84 176.02C114.24 175.38 114.773 174.873 115.44 174.5C116.106 174.127 116.84 173.94 117.64 173.94C118.44 173.94 119.033 174.073 119.42 174.34C119.82 174.593 119.973 174.9 119.88 175.26C119.84 175.447 119.76 175.593 119.64 175.7C119.533 175.793 119.406 175.853 119.26 175.88C119.113 175.907 118.953 175.9 118.78 175.86C117.926 175.687 117.16 175.673 116.48 175.82C115.8 175.967 115.26 176.24 114.86 176.64C114.473 177.04 114.28 177.547 114.28 178.16H113.26ZM113.28 185C112.96 185 112.713 184.92 112.54 184.76C112.366 184.587 112.28 184.333 112.28 184V175.06C112.28 174.74 112.366 174.493 112.54 174.32C112.713 174.147 112.96 174.06 113.28 174.06C113.613 174.06 113.86 174.147 114.02 174.32C114.193 174.48 114.28 174.727 114.28 175.06V184C114.28 184.32 114.193 184.567 114.02 184.74C113.86 184.913 113.613 185 113.28 185ZM127.865 185.08C126.892 185.08 126.019 184.84 125.245 184.36C124.472 183.867 123.859 183.207 123.405 182.38C122.965 181.54 122.745 180.593 122.745 179.54C122.745 178.487 122.985 177.54 123.465 176.7C123.959 175.86 124.619 175.2 125.445 174.72C126.285 174.227 127.225 173.98 128.265 173.98C129.305 173.98 130.239 174.227 131.065 174.72C131.892 175.2 132.545 175.86 133.025 176.7C133.519 177.54 133.765 178.487 133.765 179.54H132.985C132.985 180.593 132.759 181.54 132.305 182.38C131.865 183.207 131.259 183.867 130.485 184.36C129.712 184.84 128.839 185.08 127.865 185.08ZM128.265 183.28C128.945 183.28 129.552 183.12 130.085 182.8C130.619 182.467 131.039 182.02 131.345 181.46C131.652 180.887 131.805 180.247 131.805 179.54C131.805 178.82 131.652 178.18 131.345 177.62C131.039 177.047 130.619 176.6 130.085 176.28C129.552 175.947 128.945 175.78 128.265 175.78C127.599 175.78 126.992 175.947 126.445 176.28C125.912 176.6 125.485 177.047 125.165 177.62C124.859 178.18 124.705 178.82 124.705 179.54C124.705 180.247 124.859 180.887 125.165 181.46C125.485 182.02 125.912 182.467 126.445 182.8C126.992 183.12 127.599 183.28 128.265 183.28ZM132.745 185.02C132.452 185.02 132.205 184.927 132.005 184.74C131.819 184.54 131.725 184.293 131.725 184V180.94L132.105 178.82L133.765 179.54V184C133.765 184.293 133.665 184.54 133.465 184.74C133.279 184.927 133.039 185.02 132.745 185.02ZM142.882 185C142.215 185 141.615 184.833 141.082 184.5C140.548 184.153 140.128 183.687 139.822 183.1C139.515 182.513 139.362 181.853 139.362 181.12V171.58C139.362 171.287 139.455 171.047 139.642 170.86C139.828 170.673 140.068 170.58 140.362 170.58C140.655 170.58 140.895 170.673 141.082 170.86C141.268 171.047 141.362 171.287 141.362 171.58V181.12C141.362 181.653 141.508 182.1 141.802 182.46C142.095 182.82 142.455 183 142.882 183H143.562C143.802 183 144.002 183.093 144.162 183.28C144.335 183.467 144.422 183.707 144.422 184C144.422 184.293 144.308 184.533 144.082 184.72C143.868 184.907 143.588 185 143.242 185H142.882ZM138.442 176.18C138.162 176.18 137.935 176.1 137.762 175.94C137.588 175.78 137.502 175.58 137.502 175.34C137.502 175.073 137.588 174.86 137.762 174.7C137.935 174.54 138.162 174.46 138.442 174.46H143.062C143.342 174.46 143.568 174.54 143.742 174.7C143.915 174.86 144.002 175.073 144.002 175.34C144.002 175.58 143.915 175.78 143.742 175.94C143.568 176.1 143.342 176.18 143.062 176.18H138.442ZM150.249 185C149.956 185 149.709 184.907 149.509 184.72C149.322 184.52 149.229 184.273 149.229 183.98V175.08C149.229 174.773 149.322 174.527 149.509 174.34C149.709 174.153 149.956 174.06 150.249 174.06C150.556 174.06 150.802 174.153 150.989 174.34C151.176 174.527 151.269 174.773 151.269 175.08V183.98C151.269 184.273 151.176 184.52 150.989 184.72C150.802 184.907 150.556 185 150.249 185ZM150.249 172.28C149.889 172.28 149.576 172.153 149.309 171.9C149.056 171.633 148.929 171.32 148.929 170.96C148.929 170.6 149.056 170.293 149.309 170.04C149.576 169.773 149.889 169.64 150.249 169.64C150.609 169.64 150.916 169.773 151.169 170.04C151.436 170.293 151.569 170.6 151.569 170.96C151.569 171.32 151.436 171.633 151.169 171.9C150.916 172.153 150.609 172.28 150.249 172.28ZM162.124 185.08C161.044 185.08 160.091 184.847 159.264 184.38C158.437 183.9 157.784 183.247 157.304 182.42C156.837 181.58 156.604 180.62 156.604 179.54C156.604 178.447 156.837 177.487 157.304 176.66C157.784 175.82 158.437 175.167 159.264 174.7C160.091 174.22 161.044 173.98 162.124 173.98C163.191 173.98 164.137 174.22 164.964 174.7C165.791 175.167 166.437 175.82 166.904 176.66C167.384 177.487 167.624 178.447 167.624 179.54C167.624 180.62 167.391 181.58 166.924 182.42C166.457 183.247 165.811 183.9 164.984 184.38C164.157 184.847 163.204 185.08 162.124 185.08ZM162.124 183.28C162.817 183.28 163.431 183.12 163.964 182.8C164.497 182.48 164.911 182.04 165.204 181.48C165.511 180.92 165.664 180.273 165.664 179.54C165.664 178.807 165.511 178.16 165.204 177.6C164.911 177.027 164.497 176.58 163.964 176.26C163.431 175.94 162.817 175.78 162.124 175.78C161.431 175.78 160.817 175.94 160.284 176.26C159.751 176.58 159.331 177.027 159.024 177.6C158.717 178.16 158.564 178.807 158.564 179.54C158.564 180.273 158.717 180.92 159.024 181.48C159.331 182.04 159.751 182.48 160.284 182.8C160.817 183.12 161.431 183.28 162.124 183.28ZM182 185.02C181.707 185.02 181.46 184.927 181.26 184.74C181.073 184.54 180.98 184.293 180.98 184V179.08C180.98 178.32 180.84 177.7 180.56 177.22C180.28 176.74 179.9 176.387 179.42 176.16C178.953 175.92 178.413 175.8 177.8 175.8C177.24 175.8 176.733 175.913 176.28 176.14C175.827 176.367 175.467 176.673 175.2 177.06C174.933 177.433 174.8 177.867 174.8 178.36H173.54C173.54 177.52 173.74 176.773 174.14 176.12C174.553 175.453 175.113 174.927 175.82 174.54C176.527 174.153 177.32 173.96 178.2 173.96C179.12 173.96 179.94 174.16 180.66 174.56C181.393 174.947 181.967 175.52 182.38 176.28C182.807 177.04 183.02 177.973 183.02 179.08V184C183.02 184.293 182.92 184.54 182.72 184.74C182.533 184.927 182.293 185.02 182 185.02ZM173.78 185.02C173.487 185.02 173.24 184.927 173.04 184.74C172.853 184.54 172.76 184.293 172.76 184V175.08C172.76 174.773 172.853 174.527 173.04 174.34C173.24 174.153 173.487 174.06 173.78 174.06C174.087 174.06 174.333 174.153 174.52 174.34C174.707 174.527 174.8 174.773 174.8 175.08V184C174.8 184.293 174.707 184.54 174.52 184.74C174.333 184.927 174.087 185.02 173.78 185.02Z" fill="white"/>
</g>
<defs>
<filter id="filter0_b_190_920" x="-30" y="-30" width="310" height="310" filterUnits="userSpaceOnUse" color-interpolation-filters="sRGB">
<feFlood flood-opacity="0" result="BackgroundImageFix"/>
<feGaussianBlur in="BackgroundImage" stdDeviation="15"/>
<feComposite in2="SourceAlpha" operator="in" result="effect1_backgroundBlur_190_920"/>
<feBlend mode="normal" in="SourceGraphic" in2="effect1_backgroundBlur_190_920" result="shape"/>
</filter>
<linearGradient id="paint0_linear_190_920" x1="250" y1="375" x2="500" y2="375" gradientUnits="userSpaceOnUse">
<stop offset="0.192708" stop-color="#8A877A" stop-opacity="0.2"/>
<stop offset="0.9999" stop-color="#699CFF"/>
<stop offset="1" stop-color="white" stop-opacity="0.2"/>
</linearGradient>
<linearGradient id="paint1_linear_190_920" x1="500" y1="375" x2="250" y2="375" gradientUnits="userSpaceOnUse">
<stop stop-color="white"/>
<stop offset="1" stop-opacity="0"/>
<stop offset="1" stop-color="#1D44CE" stop-opacity="0.49"/>
</linearGradient>
</defs>
</svg>
