<svg width="277" height="153" viewBox="0 0 277 153" fill="none" xmlns="http://www.w3.org/2000/svg">
<path d="M275.098 147.691C273.059 151.611 268.229 153.136 264.309 151.098C260.389 149.059 258.864 144.229 260.902 140.309C262.941 136.389 267.771 134.864 271.691 136.902C275.611 138.941 277.136 143.771 275.098 147.691ZM0.404576 6.04587C0.155112 5.2559 0.593281 4.41327 1.38325 4.1638L14.2566 0.098536C15.0466 -0.15093 15.8892 0.287234 16.1387 1.07721C16.3882 1.86718 15.95 2.70981 15.16 2.95928L3.71702 6.57285L7.3306 18.0158C7.58007 18.8058 7.1419 19.6485 6.35193 19.8979C5.56195 20.1474 4.71933 19.7092 4.46987 18.9192L0.404576 6.04587ZM267.308 145.331L1.14293 6.925L2.52699 4.26335L268.692 142.669L267.308 145.331Z" fill="url(#paint0_linear_190_913)"/>
<defs>
<linearGradient id="paint0_linear_190_913" x1="1.83496" y1="5.59418" x2="268" y2="144" gradientUnits="userSpaceOnUse">
<stop stop-color="white" stop-opacity="0.99"/>
<stop offset="1" stop-opacity="0"/>
</linearGradient>
</defs>
</svg>
