<svg width="277" height="153" viewBox="0 0 277 153" fill="none" xmlns="http://www.w3.org/2000/svg">
<path d="M1.90227 147.691C3.94065 151.611 8.77085 153.136 12.6908 151.098C16.6108 149.059 18.1361 144.229 16.0977 140.309C14.0593 136.389 9.22915 134.864 5.30918 136.902C1.38921 138.941 -0.136119 143.771 1.90227 147.691ZM276.595 6.04587C276.845 5.2559 276.407 4.41327 275.617 4.1638L262.743 0.098536C261.953 -0.15093 261.111 0.287234 260.861 1.07721C260.612 1.86718 261.05 2.70981 261.84 2.95928L273.283 6.57285L269.669 18.0158C269.42 18.8058 269.858 19.6485 270.648 19.8979C271.438 20.1474 272.281 19.7092 272.53 18.9192L276.595 6.04587ZM9.69203 145.331L275.857 6.925L274.473 4.26335L8.30797 142.669L9.69203 145.331Z" fill="url(#paint0_linear_190_912)"/>
<defs>
<linearGradient id="paint0_linear_190_912" x1="275.165" y1="5.59418" x2="9" y2="144" gradientUnits="userSpaceOnUse">
<stop stop-color="white" stop-opacity="0.99"/>
<stop offset="1" stop-opacity="0"/>
</linearGradient>
</defs>
</svg>
