<svg width="309" height="287" viewBox="0 0 309 287" fill="none" xmlns="http://www.w3.org/2000/svg">
<path d="M155.186 265.069L219.903 242.096M11.6113 103.914L66.4135 236.898M152.624 10.9169L82.432 47.284M11.6113 103.914L82.432 47.284M211.387 32.3279L152.624 10.9169M243.248 64.7813L211.387 32.3279M287.552 79.0565L243.248 64.7813M268.351 136.659L219.903 242.096M289.587 212.623L219.903 242.096M82.432 47.284L211.387 32.3279M81.6877 181.541L66.4135 236.898M11.6113 103.914L81.6877 181.541M155.186 265.069L81.6877 181.541M83.2024 109.597L155.186 96.3397M211.387 32.3279L169.421 164.227M268.351 136.659L243.248 64.7813M169.421 164.227L155.186 96.3397L211.387 32.3279M219.903 242.096L169.421 164.227" stroke="white" stroke-width="0.5" stroke-linecap="round" stroke-linejoin="round"/>
<path d="M169.328 163.658L155.187 265.069L66.4141 236.898" stroke="white" stroke-width="0.5" stroke-linecap="round" stroke-linejoin="round"/>
<path d="M155.186 106.301C161.048 106.301 165.8 101.841 165.8 96.3397C165.8 90.8381 161.048 86.3783 155.186 86.3783C149.324 86.3783 144.572 90.8381 144.572 96.3397C144.572 101.841 149.324 106.301 155.186 106.301Z" fill="white" stroke="#020064" stroke-width="0.24" stroke-linecap="round" stroke-linejoin="round"/>
<path d="M169.422 164.227L243.249 64.7812Z" fill="white"/>
<path d="M169.422 164.227L243.249 64.7812" stroke="white" stroke-width="0.5" stroke-linecap="round" stroke-linejoin="round"/>
<path d="M243.249 74.7427C249.111 74.7427 253.863 70.2828 253.863 64.7813C253.863 59.2798 249.111 54.8199 243.249 54.8199C237.387 54.8199 232.635 59.2798 232.635 64.7813C232.635 70.2828 237.387 74.7427 243.249 74.7427Z" fill="white" stroke="#020064" stroke-width="0.24" stroke-linecap="round" stroke-linejoin="round"/>
<path d="M287.554 89.0179C293.416 89.0179 298.168 84.558 298.168 79.0565C298.168 73.555 293.416 69.0951 287.554 69.0951C281.692 69.0951 276.939 73.555 276.939 79.0565C276.939 84.558 281.692 89.0179 287.554 89.0179Z" fill="white" stroke="#020064" stroke-width="0.24" stroke-linecap="round" stroke-linejoin="round"/>
<path d="M289.587 222.584C295.449 222.584 300.201 218.124 300.201 212.623C300.201 207.121 295.449 202.661 289.587 202.661C283.725 202.661 278.973 207.121 278.973 212.623C278.973 218.124 283.725 222.584 289.587 222.584Z" fill="white" stroke="#020064" stroke-width="0.24" stroke-linecap="round" stroke-linejoin="round"/>
<path d="M211.388 42.2892C217.25 42.2892 222.002 37.8293 222.002 32.3278C222.002 26.8263 217.25 22.3665 211.388 22.3665C205.526 22.3665 200.773 26.8263 200.773 32.3278C200.773 37.8293 205.526 42.2892 211.388 42.2892Z" fill="white" stroke="#020064" stroke-width="0.24" stroke-linecap="round" stroke-linejoin="round"/>
<path d="M82.3915 57.2453C88.2535 57.2453 93.0056 52.7854 93.0056 47.2839C93.0056 41.7824 88.2535 37.3225 82.3915 37.3225C76.5295 37.3225 71.7773 41.7824 71.7773 47.2839C71.7773 52.7854 76.5295 57.2453 82.3915 57.2453Z" fill="white" stroke="#020064" stroke-width="0.24" stroke-linecap="round" stroke-linejoin="round"/>
<path d="M11.6122 114.29C17.4742 114.29 22.2263 109.83 22.2263 104.328C22.2263 98.8269 17.4742 94.3671 11.6122 94.3671C5.75015 94.3671 0.998047 98.8269 0.998047 104.328C0.998047 109.83 5.75015 114.29 11.6122 114.29Z" fill="white" stroke="#020064" stroke-width="0.24" stroke-linecap="round" stroke-linejoin="round"/>
<path d="M152.626 20.8782C158.488 20.8782 163.24 16.4183 163.24 10.9168C163.24 5.41531 158.488 0.955444 152.626 0.955444C146.764 0.955444 142.012 5.41531 142.012 10.9168C142.012 16.4183 146.764 20.8782 152.626 20.8782Z" fill="white" stroke="#020064" stroke-width="0.24" stroke-linecap="round" stroke-linejoin="round"/>
<path d="M155.186 274.588C161.048 274.588 165.8 270.128 165.8 264.627C165.8 259.125 161.048 254.665 155.186 254.665C149.324 254.665 144.572 259.125 144.572 264.627C144.572 270.128 149.324 274.588 155.186 274.588Z" fill="white" stroke="#020064" stroke-width="0.24" stroke-linecap="round" stroke-linejoin="round"/>
<path d="M66.4149 246.859C72.2769 246.859 77.029 242.399 77.029 236.898C77.029 231.396 72.2769 226.936 66.4149 226.936C60.5529 226.936 55.8008 231.396 55.8008 236.898C55.8008 242.399 60.5529 246.859 66.4149 246.859Z" fill="white" stroke="#020064" stroke-width="0.24" stroke-linecap="round" stroke-linejoin="round"/>
<path d="M81.6883 191.503C87.5504 191.503 92.3025 187.043 92.3025 181.541C92.3025 176.04 87.5504 171.58 81.6883 171.58C75.8263 171.58 71.0742 176.04 71.0742 181.541C71.0742 187.043 75.8263 191.503 81.6883 191.503Z" fill="white" stroke="#020064" stroke-width="0.24" stroke-linecap="round" stroke-linejoin="round"/>
<path d="M83.2029 128.21C98.0563 128.21 110.097 116.91 110.097 102.97C110.097 89.0301 98.0563 77.7296 83.2029 77.7296C68.3496 77.7296 56.3086 89.0301 56.3086 102.97C56.3086 116.91 68.3496 128.21 83.2029 128.21Z" fill="black" stroke="#020064" stroke-width="0.24" stroke-linecap="round" stroke-linejoin="round"/>
<path d="M101.185 121.738C96.2488 125.899 89.8479 128.2 83.2128 128.2C76.5777 128.2 70.1768 125.899 65.2402 121.738C66.7249 118.42 69.2206 115.587 72.4143 113.595C75.608 111.602 79.3574 110.54 83.1922 110.54C87.027 110.54 90.7765 111.602 93.9702 113.595C97.1638 115.587 99.6595 118.42 101.144 121.738" fill="#7A7881"/>
<path d="M101.185 121.738C96.2488 125.899 89.8479 128.2 83.2128 128.2C76.5777 128.2 70.1768 125.899 65.2402 121.738C66.7249 118.42 69.2206 115.587 72.4143 113.595C75.608 111.602 79.3574 110.54 83.1922 110.54C87.027 110.54 90.7765 111.602 93.9702 113.595C97.1638 115.587 99.6595 118.42 101.144 121.738" stroke="#5A5A5A" stroke-width="0.24" stroke-linecap="round" stroke-linejoin="round"/>
<path d="M169.425 201.317C191.251 201.317 208.945 184.711 208.945 164.227C208.945 143.742 191.251 127.136 169.425 127.136C147.598 127.136 129.904 143.742 129.904 164.227C129.904 184.711 147.598 201.317 169.425 201.317Z" fill="black" stroke="#020064" stroke-width="0.24" stroke-linecap="round" stroke-linejoin="round"/>
<path d="M156.709 163.367C156.709 166.532 158.049 169.567 160.433 171.805C162.818 174.043 166.052 175.301 169.425 175.301C172.797 175.301 176.032 174.043 178.417 171.805C180.801 169.567 182.141 166.532 182.141 163.367V157.4C182.141 154.235 180.801 151.199 178.417 148.961C176.032 146.723 172.797 145.466 169.425 145.466C166.052 145.466 162.818 146.723 160.433 148.961C158.049 151.199 156.709 154.235 156.709 157.4V163.367Z" fill="white" stroke="#020064" stroke-width="0.24" stroke-linecap="round" stroke-linejoin="round"/>
<path d="M195.841 191.812C188.588 197.928 179.181 201.311 169.429 201.311C159.678 201.311 150.271 197.928 143.018 191.812C145.188 186.923 148.851 182.746 153.546 179.806C158.24 176.866 163.756 175.295 169.4 175.291C175.043 175.286 180.562 176.848 185.262 179.781C189.961 182.713 193.632 186.884 195.811 191.77" fill="#7A7881"/>
<path d="M195.841 191.812C188.588 197.928 179.181 201.311 169.429 201.311C159.678 201.311 150.271 197.928 143.018 191.812C145.188 186.923 148.851 182.746 153.546 179.806C158.24 176.866 163.756 175.295 169.4 175.291C175.043 175.286 180.562 176.848 185.262 179.781C189.961 182.713 193.632 186.884 195.811 191.77" stroke="#5A5A5A" stroke-width="0.24" stroke-linecap="round" stroke-linejoin="round"/>
<path d="M156.814 155.859C157.145 153.449 158.253 151.191 159.988 149.387C161.723 147.583 164.004 146.32 166.525 145.765C169.046 145.211 171.687 145.392 174.096 146.284C176.504 147.176 178.565 148.737 180.002 150.759C176.992 153.5 173.244 155.422 169.16 156.32C165.077 157.218 160.809 157.059 156.814 155.859V155.859Z" fill="#888888" stroke="#2926C0" stroke-width="0.24" stroke-linecap="round" stroke-linejoin="round"/>
<path d="M268.351 160.081C283.205 160.081 295.246 148.781 295.246 134.841C295.246 120.901 283.205 109.6 268.351 109.6C253.498 109.6 241.457 120.901 241.457 134.841C241.457 148.781 253.498 160.081 268.351 160.081Z" fill="black" stroke="#020064" stroke-width="0.24" stroke-linecap="round" stroke-linejoin="round"/>
<path d="M259.697 134.255C259.697 136.409 260.609 138.475 262.232 139.998C263.855 141.521 266.056 142.377 268.352 142.377C270.647 142.377 272.848 141.521 274.471 139.998C276.094 138.475 277.006 136.409 277.006 134.255V130.194C277.006 128.04 276.094 125.974 274.471 124.45C272.848 122.927 270.647 122.072 268.352 122.072C266.056 122.072 263.855 122.927 262.232 124.45C260.609 125.974 259.697 128.04 259.697 130.194V134.255Z" fill="white" stroke="#020064" stroke-width="0.24" stroke-linecap="round" stroke-linejoin="round"/>
<path d="M286.33 153.612C281.393 157.775 274.991 160.077 268.355 160.077C261.719 160.077 255.317 157.775 250.381 153.612C251.859 150.285 254.352 147.443 257.547 145.443C260.742 143.442 264.495 142.373 268.336 142.37C272.177 142.367 275.932 143.431 279.131 145.426C282.329 147.421 284.827 150.26 286.311 153.584" fill="#7A7881"/>
<path d="M286.33 153.612C281.393 157.775 274.991 160.077 268.355 160.077C261.719 160.077 255.317 157.775 250.381 153.612C251.859 150.285 254.352 147.443 257.547 145.443C260.742 143.442 264.495 142.373 268.336 142.37C272.177 142.367 275.932 143.431 279.131 145.426C282.329 147.421 284.827 150.26 286.311 153.584" stroke="#5A5A5A" stroke-width="0.24" stroke-linecap="round" stroke-linejoin="round"/>
<path d="M259.77 129.144C259.997 127.506 260.751 125.972 261.931 124.747C263.112 123.522 264.662 122.663 266.375 122.286C268.089 121.909 269.884 122.031 271.522 122.636C273.159 123.241 274.561 124.301 275.541 125.673C273.493 127.536 270.944 128.843 268.166 129.454C265.389 130.065 262.487 129.958 259.77 129.144V129.144Z" fill="#888888" stroke="#2926C0" stroke-width="0.24" stroke-linecap="round" stroke-linejoin="round"/>
<path d="M219.904 267.249C234.757 267.249 246.798 255.948 246.798 242.008C246.798 228.068 234.757 216.768 219.904 216.768C205.051 216.768 193.01 228.068 193.01 242.008C193.01 255.948 205.051 267.249 219.904 267.249Z" fill="black" stroke="#020064" stroke-width="0.24" stroke-linecap="round" stroke-linejoin="round"/>
<path d="M211.25 241.429C211.25 243.583 212.162 245.649 213.785 247.172C215.408 248.695 217.609 249.551 219.904 249.551C222.2 249.551 224.401 248.695 226.024 247.172C227.647 245.649 228.559 243.583 228.559 241.429V237.364C228.559 235.21 227.647 233.144 226.024 231.621C224.401 230.098 222.2 229.242 219.904 229.242C217.609 229.242 215.408 230.098 213.785 231.621C212.162 233.144 211.25 235.21 211.25 237.364V241.429Z" fill="white" stroke="#020064" stroke-width="0.24" stroke-linecap="round" stroke-linejoin="round"/>
<path d="M237.882 260.783C232.945 264.943 226.544 267.245 219.908 267.245C213.273 267.245 206.871 264.943 201.934 260.783C203.411 257.456 205.904 254.614 209.099 252.613C212.293 250.612 216.047 249.543 219.887 249.54C223.728 249.536 227.484 250.599 230.683 252.594C233.881 254.589 236.38 257.427 237.864 260.752" fill="#7A7881"/>
<path d="M237.882 260.783C232.945 264.943 226.544 267.245 219.908 267.245C213.273 267.245 206.871 264.943 201.934 260.783C203.411 257.456 205.904 254.614 209.099 252.613C212.293 250.612 216.047 249.543 219.887 249.54C223.728 249.536 227.484 250.599 230.683 252.594C233.881 254.589 236.38 257.427 237.864 260.752" stroke="#5A5A5A" stroke-width="0.24" stroke-linecap="round" stroke-linejoin="round"/>
<path d="M211.32 236.315C211.548 234.677 212.302 233.143 213.482 231.918C214.662 230.693 216.213 229.834 217.926 229.457C219.64 229.08 221.435 229.202 223.072 229.807C224.71 230.412 226.112 231.471 227.092 232.844C225.043 234.707 222.495 236.014 219.717 236.625C216.94 237.236 214.038 237.129 211.32 236.315Z" fill="#888888" stroke="#2926C0" stroke-width="0.24" stroke-linecap="round" stroke-linejoin="round"/>
<path d="M165.109 99.8743L242.613 127.491M286.895 202.984L274.702 159.372M130.671 171.545L92.0631 179.425M284.385 88.565L276.935 110.91M101.686 121.306L136.666 143.472M82.8103 77.7297L82.556 57.2418M101.114 84.1389L146.776 19.2285M56.7388 107.498L22.2148 104.753M82.8141 128.207L81.8978 171.584M279.833 208.691L205.752 178.856" stroke="white" stroke-width="0.5" stroke-linecap="round" stroke-linejoin="round"/>
<path d="M74.5527 102.384C74.5287 103.464 74.7348 104.539 75.1589 105.544C75.583 106.548 76.2165 107.464 77.0223 108.236C77.8281 109.008 78.7901 109.622 79.8518 110.04C80.9134 110.459 82.0535 110.675 83.2051 110.675C84.3568 110.675 85.4969 110.459 86.5585 110.04C87.6202 109.622 88.5822 109.008 89.388 108.236C90.1938 107.464 90.8273 106.548 91.2514 105.544C91.6755 104.539 91.8816 103.464 91.8576 102.384V98.3228C91.8816 97.2422 91.6755 96.168 91.2514 95.1632C90.8273 94.1583 90.1938 93.2429 89.388 92.4708C88.5822 91.6986 87.6202 91.0852 86.5585 90.6664C85.4969 90.2476 84.3568 90.0319 83.2051 90.0319C82.0535 90.0319 80.9134 90.2476 79.8518 90.6664C78.7901 91.0852 77.8281 91.6986 77.0223 92.4708C76.2165 93.2429 75.583 94.1583 75.1589 95.1632C74.7348 96.168 74.5287 97.2422 74.5527 98.3228V102.384Z" fill="white" stroke="#020064" stroke-width="0.24" stroke-linecap="round" stroke-linejoin="round"/>
<path d="M74.623 97.2734C74.8494 95.6353 75.6028 94.101 76.7827 92.8753C77.9625 91.6496 79.5126 90.7908 81.2262 90.4135C82.9397 90.0363 84.735 90.1586 86.3726 90.764C88.0101 91.3695 89.4119 92.4293 90.3909 93.802C88.3435 95.6659 85.7955 96.9732 83.0186 97.5845C80.2416 98.1959 77.34 98.0884 74.623 97.2734V97.2734Z" fill="#888888" stroke="#2926C0" stroke-width="0.24" stroke-linecap="round" stroke-linejoin="round"/>
</svg>
