<svg width="490" height="464" viewBox="0 0 490 464" fill="none" xmlns="http://www.w3.org/2000/svg">
<path d="M382.872 238.867H449.397C457.651 259.592 489.567 254.464 489.999 232C489.565 209.533 457.648 204.411 449.397 225.133H382.872V182.012H401.687C410.236 202.405 441.739 197.057 442.148 174.801C441.69 152.133 409.373 147.225 401.425 168.277H375.695C371.731 168.277 368.517 171.352 368.517 175.144V225.133H330.459V191.163C330.459 188.709 329.09 186.442 326.87 185.215L305.056 173.166L361.222 134.068H449.398C457.652 154.792 489.568 149.665 490 127.201C489.566 104.734 457.649 99.6114 449.398 120.333H366.064V87.0763C387.145 78.712 381.409 48.8319 358.289 48.4556C334.454 48.9089 329.478 80.0873 351.709 87.4957V123.705L291.451 165.651L250.949 143.278V92.7084H274.748C283.003 113.433 314.919 108.305 315.35 85.8411C314.917 63.3741 282.999 58.252 274.748 78.9739H250.949V38.846C272.61 30.9486 267.25 0.412953 243.771 0C220.288 0.414784 214.935 30.9523 236.593 38.846V78.9739H215.253C206.998 58.2493 175.082 63.3769 174.651 85.8411C175.084 108.308 207.002 113.43 215.253 92.7084H236.593V144.636L198.549 165.651L138.291 123.705V87.4957C160.528 80.0818 155.541 48.907 131.711 48.4556C122.431 48.4556 122.431 62.1902 131.711 62.1902C135.34 62.1902 138.291 65.014 138.291 68.4852C138.191 75.5796 127.92 77.1829 125.472 70.4923C122.516 62.0757 108.908 66.4498 111.864 74.8663C113.863 80.5588 118.35 84.942 123.936 87.0782V120.333H40.602C32.3477 99.6087 0.431621 104.737 0 127.201C0.433535 149.669 32.3515 154.791 40.602 134.069H128.778L184.944 173.167L163.13 185.216C160.909 186.443 159.541 188.71 159.541 191.163V225.134H121.483V175.145C121.483 171.353 118.269 168.278 114.305 168.278H88.5752C80.6222 147.222 48.3071 152.137 47.8516 174.802C48.2621 197.062 79.7676 202.403 88.3129 182.013H107.128V225.133H40.602C32.3477 204.408 0.431621 209.536 0 232C0.433535 254.467 32.3515 259.589 40.602 238.867H107.127V281.988H88.5752C80.6222 260.932 48.3071 265.848 47.8516 288.512C48.2621 310.772 79.7676 316.113 88.3129 295.723H114.306C118.27 295.723 121.484 292.648 121.484 288.856V238.867H159.542V277.645C159.542 280.099 160.91 282.365 163.131 283.592L184.945 295.642L128.779 334.739H40.602C32.3477 314.014 0.431621 319.142 0 341.607C0.433535 364.074 32.3515 369.196 40.602 348.474H123.936V381.731C102.855 390.095 108.591 419.975 131.711 420.351C155.546 419.898 160.522 388.72 138.291 381.311V345.102L198.549 303.156L237.822 324.849V376.099H215.252C206.997 355.374 175.081 360.502 174.65 382.966C175.083 405.433 207.001 410.555 215.252 389.833H237.822V425.154C216.161 433.051 221.521 463.587 245 464C268.483 463.585 273.836 433.048 252.178 425.154V389.833H274.748C283.003 410.558 314.919 405.43 315.35 382.966C314.917 360.499 282.999 355.377 274.748 376.099H252.178V324.849L291.451 303.156L351.709 345.102V381.311C329.474 388.724 334.458 419.9 358.289 420.351C381.411 419.973 387.141 390.091 366.064 381.731V348.474H449.398C457.652 369.198 489.568 364.071 490 341.607C489.566 319.14 457.649 314.017 449.398 334.739H361.222L305.056 295.642L326.734 283.667C334.771 279.228 327.594 267.332 319.557 271.773L245 312.955L173.896 273.679V195.127L245 155.852L316.104 195.128V241.198C316.104 250.077 330.459 250.077 330.459 241.198V238.867H368.517V288.856C368.517 292.648 371.731 295.723 375.695 295.723H401.688C410.237 316.116 441.74 310.769 442.149 288.512C441.691 265.844 409.374 260.936 401.426 281.988H382.874L382.872 238.867ZM469.065 225.705C472.693 225.705 475.645 228.529 475.645 232C475.335 240.331 462.793 240.33 462.485 232C462.485 228.529 465.437 225.705 469.065 225.705ZM421.213 168.506C424.841 168.506 427.793 171.33 427.793 174.801C427.484 183.132 414.941 183.131 414.634 174.801C414.634 171.33 417.585 168.506 421.213 168.506ZM469.065 120.906C472.693 120.906 475.645 123.729 475.645 127.201C475.335 135.532 462.793 135.53 462.485 127.201C462.485 123.729 465.437 120.906 469.065 120.906ZM358.289 62.1902C361.917 62.1902 364.868 65.014 364.868 68.4852C364.559 76.8166 352.016 76.8148 351.709 68.4852C351.709 65.014 354.66 62.1902 358.289 62.1902ZM294.415 79.5461C298.043 79.5461 300.995 82.37 300.995 85.8411C300.686 94.1725 288.143 94.1707 287.836 85.8411C287.836 82.37 290.787 79.5461 294.415 79.5461ZM243.771 13.7346C247.399 13.7346 250.351 16.5584 250.351 20.0296C250.042 28.361 237.499 28.3592 237.192 20.0296C237.192 16.5584 240.143 13.7346 243.771 13.7346ZM195.585 92.1362C191.957 92.1362 189.005 89.3123 189.005 85.8411C189.314 77.5098 201.857 77.5116 202.164 85.8411C202.164 89.3123 199.213 92.1362 195.585 92.1362ZM20.9351 133.496C17.307 133.496 14.3555 130.672 14.3555 127.201C14.6646 118.869 27.2074 118.871 27.5146 127.201C27.5146 130.672 24.5632 133.496 20.9351 133.496ZM68.7866 181.096C65.1585 181.096 62.207 178.272 62.207 174.801C62.5161 166.47 75.059 166.471 75.3662 174.801C75.3662 178.272 72.4147 181.096 68.7866 181.096ZM20.9351 238.295C17.307 238.295 14.3555 235.471 14.3555 232C14.6646 223.669 27.2074 223.67 27.5146 232C27.5146 235.471 24.5632 238.295 20.9351 238.295ZM68.7866 294.807C65.1585 294.807 62.207 291.984 62.207 288.512C62.5161 280.181 75.059 280.183 75.3662 288.512C75.3662 291.984 72.4147 294.807 68.7866 294.807ZM20.9351 347.902C17.307 347.902 14.3555 345.078 14.3555 341.607C14.6646 333.275 27.2074 333.277 27.5146 341.607C27.5146 345.078 24.5632 347.902 20.9351 347.902ZM131.711 406.617C128.083 406.617 125.132 403.793 125.132 400.322C125.017 392.047 138.297 391.578 138.291 400.322C138.291 403.793 135.34 406.617 131.711 406.617ZM195.585 389.261C191.957 389.261 189.005 386.437 189.005 382.966C189.005 379.495 191.957 376.671 195.585 376.671C200.379 376.671 201.646 380.236 202.099 383.802C201.669 386.878 198.916 389.261 195.585 389.261ZM245 450.265C241.372 450.265 238.42 447.442 238.42 443.97C238.73 435.639 251.272 435.641 251.58 443.97C251.58 447.442 248.628 450.265 245 450.265ZM294.415 376.671C298.043 376.671 300.995 379.495 300.995 382.966C300.791 390.79 289.155 391.481 287.901 383.802C287.978 383.244 287.978 382.688 287.901 382.13C288.331 379.053 291.084 376.671 294.415 376.671ZM358.289 406.617C354.66 406.617 351.709 403.793 351.709 400.322C352.018 391.991 364.561 391.992 364.868 400.322C364.868 403.793 361.917 406.617 358.289 406.617ZM469.065 335.312C472.693 335.312 475.645 338.135 475.645 341.607C475.469 349.219 464.25 350.182 462.608 342.805C462.76 342.031 462.76 341.183 462.608 340.408C463.195 337.508 465.866 335.312 469.065 335.312ZM421.213 282.217C424.841 282.217 427.793 285.041 427.793 288.512C427.484 296.844 414.941 296.842 414.634 288.512C414.634 285.041 417.585 282.217 421.213 282.217Z" fill="url(#paint0_linear_188_853)"/>
<defs>
<linearGradient id="paint0_linear_188_853" x1="0.428054" y1="232" x2="489.572" y2="232" gradientUnits="userSpaceOnUse">
<stop stop-color="#FF4A4A" stop-opacity="0.84"/>
<stop offset="0.514966" stop-color="#867FF4"/>
<stop offset="1" stop-color="#7B5AFF" stop-opacity="0.84"/>
</linearGradient>
</defs>
</svg>
