<svg width="55" height="60" viewBox="0 0 55 60" fill="none" xmlns="http://www.w3.org/2000/svg">
<path d="M34.8636 4.70023C33.577 1.84206 30.5576 -0.00261379 27.1734 2.77995e-06C23.7891 0.00261935 20.7726 1.85253 19.4908 4.71245C19.4688 4.76216 19.4468 4.81187 19.4258 4.86246L0.471021 50.3062C-0.936929 53.6824 0.918055 57.4616 4.6156 58.7472C8.31314 60.0346 12.452 58.3382 13.8599 54.9628L16.8229 47.8579H37.3872L40.3158 54.9445C41.399 57.5637 44.1242 59.1781 47.0203 59.1781C47.8599 59.1781 48.7158 59.042 49.5477 58.7551C53.2491 57.4799 55.1184 53.7051 53.721 50.3254L34.9381 4.87991C34.9161 4.81885 34.8904 4.75954 34.8636 4.70023ZM22.2818 34.7742L27.1543 23.0921L31.9827 34.7742H22.2818Z" fill="url(#paint0_linear_188_854)"/>
<defs>
<linearGradient id="paint0_linear_188_854" x1="27.0922" y1="0" x2="27.0922" y2="59.1781" gradientUnits="userSpaceOnUse">
<stop stop-color="white"/>
<stop offset="1" stop-color="#8DC5E0"/>
</linearGradient>
</defs>
</svg>
