<svg width="184" height="289" viewBox="0 0 184 289" fill="none" xmlns="http://www.w3.org/2000/svg">
<g filter="url(#filter0_d_206_577)">
<path d="M-121.444 161.738C-114.233 195.209 -95.7892 225.205 -69.1751 246.745C-42.5611 268.285 -9.37905 280.072 24.8593 280.148C59.0977 280.224 92.3317 268.584 119.041 247.163C145.75 225.741 164.327 195.827 171.686 162.388C179.045 128.95 174.743 94.0004 159.495 63.3448C144.247 32.6893 118.97 8.17288 87.8627 -6.13215C56.7558 -20.4372 21.6912 -23.6698 -11.5068 -15.2931C-44.7047 -6.9164 -74.0379 12.5655 -94.6339 39.9165L-79.4414 51.3568C-61.4567 27.4736 -35.8426 10.4618 -6.85379 3.14716C22.135 -4.16747 52.7539 -1.34469 79.9168 11.1466C107.08 23.6379 129.152 45.046 142.467 71.8147C155.782 98.5835 159.538 129.102 153.112 158.301C146.687 187.499 130.465 213.621 107.142 232.327C83.8192 251.032 54.7989 261.196 24.9015 261.13C-4.99585 261.063 -33.9708 250.771 -57.2105 231.962C-80.4502 213.153 -96.5558 186.96 -102.852 157.733L-121.444 161.738Z" fill="url(#paint0_linear_206_577)" shape-rendering="crispEdges"/>
</g>
<defs>
<filter id="filter0_d_206_577" x="-121.444" y="-19.8516" width="304.636" height="308" filterUnits="userSpaceOnUse" color-interpolation-filters="sRGB">
<feFlood flood-opacity="0" result="BackgroundImageFix"/>
<feColorMatrix in="SourceAlpha" type="matrix" values="0 0 0 0 0 0 0 0 0 0 0 0 0 0 0 0 0 0 127 0" result="hardAlpha"/>
<feOffset dx="4" dy="4"/>
<feGaussianBlur stdDeviation="2"/>
<feComposite in2="hardAlpha" operator="out"/>
<feColorMatrix type="matrix" values="0 0 0 0 0 0 0 0 0 0 0 0 0 0 0 0 0 0 0.25 0"/>
<feBlend mode="normal" in2="BackgroundImageFix" result="effect1_dropShadow_206_577"/>
<feBlend mode="normal" in="SourceGraphic" in2="effect1_dropShadow_206_577" result="shape"/>
</filter>
<linearGradient id="paint0_linear_206_577" x1="-17.0794" y1="-13.7723" x2="67.4632" y2="274.069" gradientUnits="userSpaceOnUse">
<stop offset="0.53125" stop-color="#A1ADBA"/>
<stop offset="1" stop-color="#A1ADBA" stop-opacity="0"/>
</linearGradient>
</defs>
</svg>
