<svg width="420" height="828" viewBox="0 0 420 828" fill="none" xmlns="http://www.w3.org/2000/svg">
<path d="M907.661 447.77C893.712 534.513 853.624 615.6 792.465 680.775C731.306 745.95 651.824 792.287 564.069 813.926C476.315 835.565 384.229 831.534 299.457 802.343C214.685 773.152 141.034 720.112 87.8178 649.93C34.6017 579.748 4.21062 495.576 0.487604 408.059C-3.23541 320.542 19.8769 233.61 66.9018 158.257C113.927 82.9027 182.752 22.5116 264.675 -15.28C346.597 -53.0716 437.938 -66.5664 527.145 -54.0578L523.258 -29.8865C438.967 -41.7058 352.661 -28.9547 275.253 6.75413C197.846 42.463 132.813 99.5258 88.38 170.727C43.9467 241.928 22.1082 324.068 25.626 406.762C29.1439 489.456 57.8601 568.989 108.143 635.303C158.427 701.617 228.018 751.734 308.118 779.316C388.219 806.898 475.229 810.707 558.148 790.261C641.066 769.814 716.168 726.031 773.956 664.448C831.744 602.865 869.623 526.247 882.803 444.284L907.661 447.77Z" fill="url(#paint0_linear_206_573)"/>
<defs>
<linearGradient id="paint0_linear_206_573" x1="421" y1="835.5" x2="207.5" y2="18.0001" gradientUnits="userSpaceOnUse">
<stop stop-color="#DC2626"/>
<stop offset="1" stop-color="#DC2626" stop-opacity="0"/>
</linearGradient>
</defs>
</svg>
