<svg width="1020" height="712" viewBox="0 0 1020 712" fill="none" xmlns="http://www.w3.org/2000/svg">
<path d="M103.844 -464.178C206.321 -533.4 330.816 -569.651 461.585 -568.346C592.355 -567.041 723.525 -528.239 838.51 -456.847C953.495 -385.455 1047.13 -284.679 1107.57 -167.263C1168.01 -49.8469 1192.55 78.9354 1178.08 202.799C1163.61 326.662 1110.78 440.043 1026.27 528.605C941.762 617.166 829.371 676.93 703.31 700.339C577.25 723.747 443.181 709.75 318.058 660.116C192.936 610.482 82.3782 527.44 0.367155 421.493L28.9225 402.204C106.414 502.313 210.878 580.777 329.105 627.676C447.332 674.574 574.012 687.801 693.125 665.682C812.238 643.563 918.435 587.093 998.286 503.413C1078.14 419.732 1128.06 312.6 1141.73 195.563C1155.4 78.5256 1132.22 -43.1592 1075.11 -154.104C1017.99 -265.049 929.521 -360.271 820.874 -427.729C712.226 -495.186 588.284 -531.85 464.722 -533.083C341.16 -534.316 223.526 -500.063 126.697 -434.656L103.844 -464.178Z" fill="#70AEF6"/>
</svg>
