<svg width="149" height="129" viewBox="0 0 149 129" fill="none" xmlns="http://www.w3.org/2000/svg">
<g clip-path="url(#clip0_403_48)">
<path fill-rule="evenodd" clip-rule="evenodd" d="M27.584 116.958L25.8448 122.003L18.892 122.225L18.4272 114.639L27.584 116.958Z" fill="#F77F89"/>
<path fill-rule="evenodd" clip-rule="evenodd" d="M18.5869 121.352V127.981L37.3871 128.356C37.3871 128.356 36.8526 123.619 27.2391 123.541C27.275 121.46 27.279 121.352 27.279 121.352H18.5869Z" fill="#6367FD"/>
<path fill-rule="evenodd" clip-rule="evenodd" d="M10.0125 117.912L10.1421 122.88L17.4021 123.103L19.2889 117.574L10.0125 117.912Z" fill="#F77F89"/>
<path fill-rule="evenodd" clip-rule="evenodd" d="M20.9922 0C28.8924 0 30.5279 6.62184 30.5319 9.05377C30.5319 11.3713 30.0193 11.725 30.0373 14.0743C30.0493 15.8586 30.6356 17.108 30.5818 18.1216C30.2706 23.4008 22.1809 24.923 19.8713 24.9529C17.5617 24.9828 7.50537 23.2653 7.50537 19.1616C7.50537 16.2986 9.56968 11.7198 9.51384 8.53994C9.39018 1.9357 15.6489 0 20.9922 0Z" fill="black"/>
<path fill-rule="evenodd" clip-rule="evenodd" d="M9.97241 121.998L10.0801 128.632L28.5353 129C28.5353 129 28.5353 124.163 18.4271 124.073V121.998H9.97241Z" fill="#6367FD"/>
<path fill-rule="evenodd" clip-rule="evenodd" d="M8.16162 72.2366L8.20949 118.646L21.3971 118.392L21.5966 116.244L30.1012 117.256L35.4983 68.8632L32.5843 56.4713L13.3234 56.0067L8.16162 72.2366Z" fill="#1B3C87"/>
<path fill-rule="evenodd" clip-rule="evenodd" d="M23.6986 91.9561L31.6068 103.681L30.105 117.132L21.5864 116.253L23.6986 91.9561Z" fill="#1B3C87"/>
<path fill-rule="evenodd" clip-rule="evenodd" d="M18.15 60.1825H32.1594L34.0562 41.9219L31.5251 27.9286L26.7383 23.8618L21.9396 21.9719L13.2734 23.1404L18.15 60.1825Z" fill="#F7D167"/>
<path d="M12.6411 118.561L12.7319 69.1958" stroke="#737999" stroke-width="1.7" stroke-linecap="round" stroke-linejoin="round"/>
<path fill-rule="evenodd" clip-rule="evenodd" d="M15.7427 21.7466C12.4677 21.8258 2.68863 24.9581 1.26056 28.1362C0.175554 30.547 -0.568396 52.3605 1.98058 53.4252C2.14421 53.495 2.31523 53.5504 2.49117 53.5906C2.3376 54.2593 0.869641 69.7431 1.24261 71.0312C1.61559 72.3193 2.59489 74.2691 4.01298 74.1987C9.49986 73.9083 19.5801 67.554 20.5813 66.5175C20.7349 64.5537 21.1597 57.1769 21.1597 57.1769L20.2861 35.2895L15.2859 23.2283C15.2859 23.2283 19.0176 21.6675 15.7427 21.7466Z" fill="white"/>
<path fill-rule="evenodd" clip-rule="evenodd" d="M22.8789 21.6094C28.5094 22.2271 36.4575 26.0791 37.4807 27.8335C38.3423 29.3082 37.9055 48.3994 37.9055 48.3994C37.9055 48.3994 34.7143 52.262 36.1523 57.8175C37.4727 62.9418 37.8636 69.8592 36.4794 71.1526C34.1977 70.1338 31.2638 66.0494 30.7353 65.0429C30.2067 64.0363 30.0691 58.3418 29.6622 57.1241C29.2553 55.9064 27.4344 34.348 27.4344 34.348C27.4344 34.348 26.5847 25.6392 22.8789 21.6094Z" fill="white"/>
<path d="M8.7041 23.443C11.5383 28.0025 17.2805 33.1989 20.2403 35.1821" stroke="#C9C9C9" stroke-width="2" stroke-linecap="round" stroke-linejoin="round"/>
<path d="M25.729 22.132C28.2521 25.1341 28.9023 30.2356 26.9257 35.4162" stroke="#C9C9C9" stroke-width="2" stroke-linecap="round" stroke-linejoin="round"/>
<path d="M11.5681 36.1799C11.5681 35.7879 11.6999 35.4048 11.9467 35.0789C12.1936 34.753 12.5445 34.499 12.955 34.3491C13.3654 34.1992 13.8171 34.1601 14.2528 34.2367C14.6885 34.3133 15.0887 34.5021 15.4027 34.7794C15.7167 35.0567 15.9304 35.4099 16.0168 35.7944C16.1033 36.1789 16.0585 36.5774 15.8882 36.9394C15.7179 37.3014 15.4298 37.6108 15.0602 37.8283C14.6906 38.0458 14.2562 38.1617 13.8119 38.1614C13.2167 38.1609 12.6459 37.9519 12.2252 37.5804C11.8045 37.2088 11.5681 36.7051 11.5681 36.1799V36.1799Z" stroke="#353823" stroke-width="3.41" stroke-linecap="round" stroke-linejoin="round"/>
<path fill-rule="evenodd" clip-rule="evenodd" d="M12.6611 36.1799C12.6611 35.9798 12.7284 35.7841 12.8544 35.6178C12.9804 35.4514 13.1595 35.3217 13.3691 35.2451C13.5787 35.1685 13.8092 35.1485 14.0317 35.1875C14.2542 35.2265 14.4585 35.3229 14.6189 35.4644C14.7793 35.6059 14.8885 35.7862 14.9328 35.9825C14.977 36.1788 14.9543 36.3822 14.8675 36.5671C14.7807 36.752 14.6337 36.91 14.4451 37.0212C14.2565 37.1324 14.0348 37.1917 13.808 37.1917C13.5038 37.1917 13.2121 37.0851 12.997 36.8954C12.782 36.7056 12.6611 36.4483 12.6611 36.1799V36.1799Z" fill="#353823"/>
<path d="M13.2056 34.2706C11.6898 29.3592 11.5921 22.5245 15.5053 21.2926" stroke="#353823" stroke-width="3.41" stroke-linecap="round" stroke-linejoin="round"/>
<path d="M22.3384 20.4568C24.5702 21.2909 26.6964 25.1376 27.195 28.4318" stroke="#353823" stroke-width="3.41" stroke-linecap="round" stroke-linejoin="round"/>
<path d="M24.7857 34.619C24.0717 31.5747 25.1487 28.8119 27.1911 28.4318C29.2335 28.0517 31.4693 30.2232 32.1773 33.2676C32.8854 36.3119 31.8143 39.0746 29.772 39.453C27.7296 39.8313 25.4997 37.6581 24.7857 34.619Z" stroke="#353823" stroke-width="3.41" stroke-linecap="round" stroke-linejoin="round"/>
<path d="M10.896 29.8308L10.0344 44.6318" stroke="#C9C9C9" stroke-width="2" stroke-linecap="round" stroke-linejoin="round"/>
<path d="M8.4707 30.2672L10.7105 33.023" stroke="#C9C9C9" stroke-width="2" stroke-linecap="round" stroke-linejoin="round"/>
<path fill-rule="evenodd" clip-rule="evenodd" d="M15.956 43.4546L7.34375 45.2724Z" fill="#606060"/>
<path d="M15.956 43.4546L7.34375 45.2724" stroke="#C9C9C9" stroke-width="2" stroke-linecap="round" stroke-linejoin="round"/>
<path d="M7.77856 43.2399L9.97252 44.7181" stroke="#C9C9C9" stroke-width="2" stroke-linecap="round" stroke-linejoin="round"/>
<path d="M16.2831 52.0262C12.6611 53.3126 4.05684 54.8506 2.43131 53.5765C0.257305 51.8714 -0.360991 34.2724 0.730003 29.6038C1.36625 26.8868 4.5794 25.1377 6.25478 24.4338" stroke="#C9C9C9" stroke-width="2" stroke-linecap="round" stroke-linejoin="round"/>
<path d="M13.6943 52.7794C12.6612 51.6232 12.2663 45.8584 12.7649 44.1286" stroke="#C9C9C9" stroke-width="2" stroke-linecap="round" stroke-linejoin="round"/>
<path fill-rule="evenodd" clip-rule="evenodd" d="M13.8079 45.2548C13.8075 45.1628 13.838 45.0728 13.8956 44.9962C13.9533 44.9196 14.0353 44.8598 14.1315 44.8243C14.2277 44.7889 14.3336 44.7795 14.4359 44.7972C14.5382 44.8149 14.6322 44.859 14.706 44.9239C14.7799 44.9888 14.8302 45.0716 14.8507 45.1617C14.8712 45.2519 14.8609 45.3454 14.8211 45.4304C14.7813 45.5154 14.7138 45.5881 14.6272 45.6392C14.5405 45.6903 14.4386 45.7176 14.3344 45.7176C14.2654 45.7178 14.1969 45.706 14.1331 45.6829C14.0692 45.6597 14.0111 45.6257 13.9622 45.5827C13.9133 45.5397 13.8745 45.4886 13.848 45.4323C13.8215 45.376 13.8079 45.3157 13.8079 45.2548V45.2548Z" fill="#C9C9C9"/>
<path d="M12.8486 59.3854C11.7033 59.7756 10.4861 59.9754 9.25845 59.9749C8.34753 59.9671 7.44217 59.8486 6.56787 59.6229C6.50218 59.846 6.4667 60.0752 6.46216 60.3057V63.9818C6.46216 64.7518 6.80888 65.4904 7.42605 66.0349C8.04322 66.5794 8.88028 66.8853 9.75309 66.8853C10.6259 66.8853 11.463 66.5794 12.0801 66.0349C12.6973 65.4904 13.044 64.7518 13.044 63.9818V60.3022C13.0357 59.9893 12.9696 59.6796 12.8486 59.3854Z" stroke="#C9C9C9" stroke-width="2" stroke-linecap="round" stroke-linejoin="round"/>
<path fill-rule="evenodd" clip-rule="evenodd" d="M25.6133 33.5262H42.8119C43.855 33.5262 44.4773 34.246 44.2081 35.1329L37.5684 56.6824C37.4064 57.1355 37.0893 57.5333 36.6607 57.8209C36.2322 58.1086 35.7131 58.2722 35.175 58.289H17.9863C16.9452 58.289 16.3209 57.5693 16.5902 56.6824L23.2279 35.1329C23.3892 34.6807 23.705 34.2836 24.132 33.996C24.5591 33.7084 25.0765 33.5443 25.6133 33.5262V33.5262Z" fill="#0047AB"/>
<path fill-rule="evenodd" clip-rule="evenodd" d="M15.9061 44.5104C16.6665 44.1224 17.474 43.8114 18.3134 43.583C19.5241 42.7032 20.4137 39.2277 20.7348 39.0078C21.0559 38.7878 22.1309 38.9303 22.1628 39.2594C22.3025 40.4648 22.2287 41.8726 21.018 43.1308C24.5403 41.1546 24.8076 40.2783 25.7769 40.9399C26.7462 41.6016 27.0953 44.8289 26.2635 46.1628C23.9739 49.8441 17.9505 50.3421 16.1075 50.3668C15.6488 48.6159 15.6488 46.4989 15.9061 44.5104Z" fill="#F77F89"/>
<path d="M8.20752 115.024L21.826 114.639" stroke="#737999" stroke-width="1.7" stroke-linecap="round" stroke-linejoin="round"/>
<path d="M25.7631 68.0397L21.6025 116.246" stroke="#737999" stroke-width="1.7" stroke-linecap="round" stroke-linejoin="round"/>
<path d="M21.9395 112.372L30.5398 113.263" stroke="#737999" stroke-width="1.7" stroke-linecap="round" stroke-linejoin="round"/>
<path d="M32.8276 92.8113C32.3012 92.8579 31.7697 92.8009 31.2713 92.6443C30.773 92.4878 30.3202 92.2357 29.9456 91.9061C29.571 91.5766 29.2839 91.1778 29.1051 90.7385C28.9262 90.2993 28.8601 89.8305 28.9114 89.3659C28.9627 88.9014 29.1302 88.4527 29.4017 88.0521C29.6733 87.6516 30.0422 87.3092 30.4819 87.0496C30.9215 86.7901 31.421 86.6198 31.9442 86.5511C32.4674 86.4824 33.0015 86.5169 33.5077 86.6523" stroke="#737999" stroke-width="1.7" stroke-linecap="round" stroke-linejoin="round"/>
<path d="M23.4655 94.9705C22.439 94.9205 21.4751 94.5193 20.7788 93.852C20.0825 93.1847 19.7088 92.304 19.7371 91.3973C19.7654 90.4906 20.1936 89.6295 20.9304 88.997C21.6673 88.3646 22.6548 88.0107 23.6829 88.0108C23.8158 88.0108 23.9415 88.016 24.0598 88.0266" stroke="#737999" stroke-width="1.7" stroke-linecap="round" stroke-linejoin="round"/>
<path d="M26.3972 41.8972L23.3157 44.074" stroke="#A7464F" stroke-width="3.41" stroke-linecap="round" stroke-linejoin="round"/>
<path d="M26.7264 44.1497L22.8132 46.8949" stroke="#A7464F" stroke-width="3.41" stroke-linecap="round" stroke-linejoin="round"/>
<path fill-rule="evenodd" clip-rule="evenodd" d="M43.9109 44.0459C43.863 43.3209 44.1103 41.7107 44.8403 40.1745C45.1076 39.6184 45.1236 38.7034 44.1841 38.7034C43.1151 38.7034 41.685 40.5968 42.3891 42.851C43.0932 45.1052 43.9807 45.07 43.9109 44.0459Z" fill="#F77F89"/>
<path fill-rule="evenodd" clip-rule="evenodd" d="M40.6002 39.7856C41.4499 39.7856 44.0327 44.294 44.0148 44.8413C43.9968 45.3885 43.7276 46.2209 43.3267 46.1787C42.9258 46.1364 39.571 42.3688 39.571 41.0895C39.571 40.3487 39.9799 39.7856 40.6002 39.7856Z" fill="#F77F89"/>
<path fill-rule="evenodd" clip-rule="evenodd" d="M39.4911 42.3759C40.5502 42.3759 43.3425 45.9692 43.3624 46.381C43.3824 46.7928 42.8179 47.1711 42.3512 47.1887C41.8845 47.2063 38.5477 44.792 38.5477 43.6693C38.5417 42.983 38.8927 42.3759 39.4911 42.3759Z" fill="#F77F89"/>
<path fill-rule="evenodd" clip-rule="evenodd" d="M40.4686 49.0963C40.9273 49.0769 42.2038 48.0704 42.2038 47.2785C42.2038 46.967 41.3122 46.1611 40.8655 46.1857C40.4187 46.2103 39.5072 47.7254 39.5252 48.1108C39.5431 48.4962 39.8682 49.1156 40.4686 49.0963Z" fill="#F77F89"/>
<path d="M42.2036 41.452C43.1191 42.7964 44.0246 44.5175 44.0146 44.8412" stroke="#A7464F" stroke-width="3.41" stroke-linecap="round" stroke-linejoin="round"/>
<path d="M40.1313 42.6398C41.3919 43.4775 43.3405 46.0379 43.3565 46.381" stroke="#A94B53" stroke-width="3.41" stroke-linecap="round" stroke-linejoin="round"/>
<path fill-rule="evenodd" clip-rule="evenodd" d="M12.5774 10.2926C12.5774 6.26462 16.2293 2.99153 20.7429 2.99153C25.2565 2.99153 28.9004 6.25758 28.9004 10.2856C28.9004 14.3136 25.2405 17.5867 20.7429 17.5867C16.2453 17.5867 12.5774 14.3224 12.5774 10.2926Z" fill="#F77F89"/>
<path fill-rule="evenodd" clip-rule="evenodd" d="M19.5341 10.8188C19.6218 10.3542 19.933 10.0111 20.2441 10.0568C20.5553 10.1026 20.7268 10.5144 20.643 10.9789C20.5592 11.4435 20.2441 11.7866 19.933 11.7426C19.6218 11.6986 19.4483 11.2851 19.5341 10.8188Z" fill="#B5545C"/>
<path fill-rule="evenodd" clip-rule="evenodd" d="M25.6793 11.1672C25.7611 10.7325 26.0563 10.4123 26.3415 10.4545C26.6267 10.4967 26.7923 10.8821 26.7125 11.3168C26.6327 11.7514 26.3335 12.0699 26.0483 12.0207C25.7631 11.9714 25.5976 11.6018 25.6793 11.1672Z" fill="#B5545C"/>
<path fill-rule="evenodd" clip-rule="evenodd" d="M13.824 13.5041C14.3087 14.6937 15.5273 20.8756 15.2202 23.121C16.4966 24.8279 22.185 24.3528 23.8803 22.9081C23.0366 20.8298 23.0047 19.3393 23.3139 17.5867C23.6071 15.9466 13.3393 12.3181 13.824 13.5041Z" fill="#F77F89"/>
<path fill-rule="evenodd" clip-rule="evenodd" d="M23.972 2.81556C24.0418 4.54888 22.2487 6.20478 17.3742 7.02657C17.9087 8.24254 17.9526 10.0709 15.2899 10.4C12.1845 10.7801 11.9312 7.27997 11.9312 7.27997L16.5823 2.43194C16.5823 2.43194 23.9042 1.07871 23.972 2.81556Z" fill="black"/>
<path fill-rule="evenodd" clip-rule="evenodd" d="M22.5081 1.59606C22.3087 3.13582 24.3171 6.87523 28.9683 6.97729C32.2752 6.97729 22.7016 0.0545447 22.5081 1.59606Z" fill="black"/>
<path fill-rule="evenodd" clip-rule="evenodd" d="M17.1127 17.328C16.666 16.83 17.3122 14.5599 18.0163 13.52C18.8659 13.0783 21.8796 13.446 23.4333 12.267C23.8901 11.9151 24.1354 12.1755 24.4904 12.5609C25.1147 13.2366 26.9915 13.5868 27.6936 13.9687C27.7973 14.9541 26.7721 17.2101 26.3293 17.7151C25.6353 18.5158 19.2907 18.588 17.1127 17.328Z" fill="white"/>
<path d="M18.4273 13.7258C18.0164 13.1205 16.2213 10.4123 15.6489 9.72598" stroke="white" stroke-width="3.41" stroke-linecap="round" stroke-linejoin="round"/>
<path d="M17.466 17.1837C16.2513 17.1837 13.3633 13.8314 13.0342 12.707" stroke="white" stroke-width="3.41" stroke-linecap="round" stroke-linejoin="round"/>
<path fill-rule="evenodd" clip-rule="evenodd" d="M11.1812 10.8909C11.1812 10.427 11.3371 9.97348 11.6292 9.58773C11.9214 9.20198 12.3366 8.90133 12.8224 8.72378C13.3082 8.54624 13.8428 8.49979 14.3585 8.5903C14.8742 8.68081 15.348 8.90422 15.7198 9.23227C16.0916 9.56033 16.3448 9.97829 16.4474 10.4333C16.55 10.8883 16.4974 11.36 16.2961 11.7886C16.0949 12.2172 15.7541 12.5836 15.3169 12.8413C14.8797 13.0991 14.3657 13.2367 13.8398 13.2367C13.1347 13.2367 12.4585 12.9895 11.9599 12.5496C11.4613 12.1097 11.1812 11.5131 11.1812 10.8909V10.8909Z" fill="#F77F89"/>
<path d="M27.9807 127.431L10.0581 127.323" stroke="#1B3C87" stroke-width="1.7" stroke-linecap="round" stroke-linejoin="round"/>
<path d="M28.3639 128.208C27.8712 126.834 25.9445 124.141 18.4272 124.076V123.409" stroke="#1B3C87" stroke-width="1.7" stroke-linecap="round" stroke-linejoin="round"/>
<path d="M10.0581 125.5C10.5034 125.5 10.9443 125.577 11.3557 125.728C11.767 125.878 12.1408 126.098 12.4557 126.376C12.7705 126.654 13.0203 126.984 13.1907 127.347C13.3611 127.71 13.4488 128.099 13.4488 128.491C13.4488 128.571 13.4488 128.648 13.4488 128.725" stroke="#1B3C87" stroke-width="1.7" stroke-linecap="round" stroke-linejoin="round"/>
<path d="M20.4136 125.595L21.2932 124.251" stroke="#1B3C87" stroke-width="1.7" stroke-linecap="round" stroke-linejoin="round"/>
<path d="M22.4841 125.912L23.2341 124.592" stroke="#1B3C87" stroke-width="1.7" stroke-linecap="round" stroke-linejoin="round"/>
<path d="M24.4426 126.258L25.0948 125.19" stroke="#1B3C87" stroke-width="1.7" stroke-linecap="round" stroke-linejoin="round"/>
<path d="M20.8804 61.8789L30.1947 61.622" stroke="#737999" stroke-width="1.7" stroke-linecap="round" stroke-linejoin="round"/>
<path d="M9.98657 122.851L18.4273 122.73" stroke="#1B3C87" stroke-width="1.7" stroke-linecap="round" stroke-linejoin="round"/>
<path d="M18.5869 122.125L27.267 122.063" stroke="#1B3C87" stroke-width="1.7" stroke-linecap="round" stroke-linejoin="round"/>
<path d="M36.9362 127.197L27.6777 127.02" stroke="#1B3C87" stroke-width="1.7" stroke-linecap="round" stroke-linejoin="round"/>
<path d="M30.0512 123.719L29.2534 124.97" stroke="#1B3C87" stroke-width="1.7" stroke-linecap="round" stroke-linejoin="round"/>
<path d="M31.3815 123.999L30.5837 125.252" stroke="#1B3C87" stroke-width="1.7" stroke-linecap="round" stroke-linejoin="round"/>
<path d="M32.8017 124.344L32.0039 125.597" stroke="#1B3C87" stroke-width="1.7" stroke-linecap="round" stroke-linejoin="round"/>
<path d="M6.48016 73.7676C3.4884 74.8727 1.24259 72.9036 1.22464 70.952C1.20669 69.0005 2.08227 57.3564 2.20194 56.195" stroke="#C9C9C9" stroke-width="2" stroke-linecap="round" stroke-linejoin="round"/>
<path d="M37.8596 30.6192C38.0152 26.6352 33.2603 24.8121 31.3037 24.0308" stroke="#C9C9C9" stroke-width="2" stroke-linecap="round" stroke-linejoin="round"/>
<path d="M36.9303 70.3889C37.3033 68.2649 37.3292 62.5177 36.699 60.3251" stroke="#C9C9C9" stroke-width="2" stroke-linecap="round" stroke-linejoin="round"/>
</g>
<path d="M133.119 125H127.124V116.343H128.211H128.223C131.42 116.349 134.01 118.854 134.01 121.943V124.14C134.01 124.615 133.611 125 133.119 125V125Z" fill="#0047AB"/>
<path d="M78.8909 125H84.8867V116.343H83.7992C83.7954 116.343 83.7915 116.343 83.7878 116.343C80.5903 116.349 78 118.854 78 121.943V124.14C78 124.615 78.3988 125 78.8909 125V125Z" fill="#0047AB"/>
<path d="M126.645 104.31H123.406C122.905 104.31 122.5 103.918 122.5 103.435C122.5 102.952 122.905 102.56 123.406 102.56H126.645C127.488 102.56 128.175 101.897 128.175 101.083V95.3709C128.175 94.8874 128.58 94.4957 129.081 94.4957C129.581 94.4957 129.987 94.8875 129.987 95.3709V101.083C129.987 102.862 128.488 104.31 126.645 104.31Z" fill="#99B7BF"/>
<path d="M84.5637 92.7649C84.0632 92.7649 83.6575 92.3731 83.6575 91.8898V69.7242C83.6575 69.2407 84.0632 68.849 84.5637 68.849C85.0642 68.849 85.4699 69.2409 85.4699 69.7242V91.8898C85.4701 92.3731 85.0642 92.7649 84.5637 92.7649Z" fill="#1B3C87"/>
<path d="M127.445 91.6718C126.944 91.6718 126.538 91.28 126.538 90.7966V83.7457C126.538 77.6771 121.426 72.7398 115.142 72.7398H96.8669C90.5827 72.7398 85.4702 77.6771 85.4702 83.7457V90.7966C85.4702 91.2801 85.0645 91.6718 84.564 91.6718C84.0634 91.6718 83.6577 91.28 83.6577 90.7966V83.7457C83.6577 76.7118 89.5833 70.9894 96.867 70.9894H115.142C122.425 70.9894 128.351 76.7118 128.351 83.7457V90.7966C128.351 91.28 127.945 91.6718 127.445 91.6718Z" fill="#7FB2F9"/>
<path d="M89.4444 97.1758H83.9012C82.868 97.1758 82.0305 96.367 82.0305 95.3692V88.7451C82.0305 87.7473 82.868 86.9386 83.9012 86.9386H89.4445V97.1758H89.4444Z" fill="#0047AB"/>
<path d="M122.565 97.1758H128.109C129.142 97.1758 129.979 96.367 129.979 95.3692V88.7451C129.979 87.7473 129.142 86.9386 128.109 86.9386H122.565V97.1758Z" fill="#0047AB"/>
<path d="M99.1687 103.727H112.841V119.431H99.1687V103.727Z" fill="#1B3C87"/>
<path d="M116.467 100.179V83.65C116.467 81.0246 115.206 78.6838 113.237 77.1613C113.17 77.164 113.102 77.1654 113.034 77.1654H98.9771C97.5556 77.1654 96.6022 76.5802 96.0053 75.6456C95.9745 75.5976 95.9182 75.5696 95.8602 75.5763C91.6347 76.0576 88.3569 79.5284 88.3569 83.7383V100.09C88.3569 104.597 92.1402 108.25 96.807 108.25H109.696C113.563 107.463 116.467 104.148 116.467 100.179V100.179Z" fill="#BCD6F9"/>
<path d="M115.144 75.5187H107.249C111.949 75.5187 115.76 79.1985 115.76 83.7378V100.089C115.76 104.596 111.977 108.25 107.31 108.25H115.205C119.871 108.25 123.655 104.596 123.655 100.089V83.7378C123.655 79.1985 119.844 75.5187 115.144 75.5187V75.5187Z" fill="#BCD6F9"/>
<path d="M123.079 105.465H118.824C117.66 105.465 116.716 104.554 116.716 103.43C116.716 102.306 117.66 101.395 118.824 101.395H123.079C124.243 101.395 125.186 102.306 125.186 103.43C125.186 104.554 124.243 105.465 123.079 105.465Z" fill="#F7D167"/>
<path d="M116.467 83.6535C116.467 83.6402 116.467 83.627 116.467 83.6137H94.6246C93.1046 83.6137 91.8726 84.8036 91.8726 86.2714V95.3142C91.8726 96.782 93.1046 97.9719 94.6246 97.9719H116.467V83.6535Z" fill="#EAF2FF"/>
<path d="M115.759 83.7419V97.9719H117.386C118.906 97.9719 120.138 96.782 120.138 95.3142V86.2714C120.138 84.8036 118.906 83.6137 117.386 83.6137H115.755C115.756 83.6566 115.759 83.6989 115.759 83.7419Z" fill="#DBE8F9"/>
<path d="M99.0482 93.3457C100.51 93.3457 101.695 92.2012 101.695 90.7895C101.695 89.3777 100.51 88.2332 99.0482 88.2332C97.5862 88.2332 96.4011 89.3777 96.4011 90.7895C96.4011 92.2012 97.5862 93.3457 99.0482 93.3457Z" fill="#0047AB"/>
<path d="M112.964 93.3457C114.426 93.3457 115.611 92.2012 115.611 90.7895C115.611 89.3777 114.426 88.2332 112.964 88.2332C111.503 88.2332 110.317 89.3777 110.317 90.7895C110.317 92.2012 111.503 93.3457 112.964 93.3457Z" fill="#0047AB"/>
<path d="M108.159 105.057H103.85C102.087 105.057 100.653 103.672 100.653 101.97C100.653 101.486 101.059 101.094 101.56 101.094C102.06 101.094 102.466 101.486 102.466 101.97C102.466 102.707 103.087 103.306 103.85 103.306H108.159C108.923 103.306 109.544 102.707 109.544 101.97C109.544 101.486 109.949 101.094 110.45 101.094C110.951 101.094 111.356 101.486 111.356 101.97C111.356 103.672 109.922 105.057 108.159 105.057Z" fill="#EAF2FF"/>
<path d="M114.685 78.588C113.457 77.048 111.682 75.9355 109.641 75.5216H96.8685C96.5255 75.5216 96.188 75.5435 95.8557 75.5816C95.9924 77.9134 97.9931 79.7639 100.442 79.7639H111.57C112.772 79.7639 113.866 79.3179 114.685 78.588V78.588Z" fill="#1B3C87"/>
<path d="M115.143 75.5216H107.249C110.11 75.5219 112.639 76.8861 114.182 78.9763C115.311 78.2206 116.074 76.9892 116.156 75.5816C115.824 75.5435 115.486 75.5216 115.143 75.5216V75.5216Z" fill="#6C63FF"/>
<path d="M84.5654 71.5516C85.8669 71.5516 86.922 70.5327 86.922 69.2758C86.922 68.0189 85.8669 67 84.5654 67C83.2638 67 82.2087 68.0189 82.2087 69.2758C82.2087 70.5327 83.2638 71.5516 84.5654 71.5516Z" fill="#1B3C87"/>
<path d="M117.132 113.3H87.4853C85.4492 113.3 83.7986 114.894 83.7986 116.86V124.997H91.6765V124.934C91.6765 124.498 92.0423 124.145 92.4937 124.145H119.516C119.967 124.145 120.333 124.498 120.333 124.934V124.997L120.816 124.254V116.86C120.816 114.894 119.167 113.301 117.132 113.3Z" fill="#BCD6F9"/>
<path d="M124.525 113.3H116.647C118.683 113.3 120.334 114.894 120.334 116.86V124.997H128.212V116.86C128.212 114.894 126.561 113.3 124.525 113.3V113.3Z" fill="#BCD6F9"/>
<path d="M120.333 124.998V121.292C120.333 120.557 119.717 119.962 118.957 119.962H93.0534C92.293 119.962 91.6768 120.557 91.6768 121.292V124.998H120.333Z" fill="#EAF2FF"/>
<path d="M125.149 68.4532C125.443 68.2596 127.234 67.0047 128.192 64.7354C126.017 62.4219 124.682 59.155 124.682 55.6516C124.682 48.6755 130.031 43 136.607 43C143.182 43 148.532 48.6755 148.532 55.6516C148.532 62.6136 143.2 68.4087 136.607 68.4087C135.725 68.4087 134.851 68.3059 133.998 68.1024C133.964 68.0943 133.702 68.0579 133.523 68.0076C130.098 70.0652 125.596 69.9824 125.522 69.9831C125.2 70.0617 124.842 69.8617 124.718 69.4767C124.58 69.0469 124.792 68.595 125.149 68.4532ZM132.967 66.551C133.138 66.3739 133.384 66.2975 133.624 66.3727C134.588 66.6743 135.591 66.8273 136.607 66.8273C142.412 66.8273 147.134 61.8139 147.134 55.6517C147.134 49.5476 142.412 44.5815 136.607 44.5815C130.802 44.5815 126.079 49.5476 126.079 55.6517C126.079 58.8164 127.321 61.832 129.486 63.9253C129.712 64.1437 129.792 64.4998 129.684 64.8132C129.147 66.3752 128.26 67.571 127.537 68.3561C128.945 68.2284 130.9 67.8167 132.967 66.551Z" fill="white"/>
<path d="M136.692 54.0035C136.183 54.0035 135.77 54.4703 135.77 55.0463V61.7619C135.77 62.3378 136.183 62.8047 136.692 62.8047C137.201 62.8047 137.613 62.3378 137.613 61.7618V55.0463C137.613 54.4703 137.201 54.0035 136.692 54.0035Z" fill="white"/>
<path d="M136.691 52.7273C137.378 52.7273 137.935 52.097 137.935 51.3194C137.935 50.5419 137.378 49.9116 136.691 49.9116C136.004 49.9116 135.447 50.5419 135.447 51.3194C135.447 52.097 136.004 52.7273 136.691 52.7273Z" fill="white"/>
<defs>
<clipPath id="clip0_403_48">
<rect width="45" height="129" fill="white"/>
</clipPath>
</defs>
</svg>
