<svg width="277" height="208" viewBox="0 0 277 208" fill="none" xmlns="http://www.w3.org/2000/svg">
<path d="M143.94 51.1294H130.723C130.117 51.1294 129.621 50.533 129.621 49.8046V34.4782C129.621 33.7499 130.117 33.1535 130.723 33.1535H143.94C144.547 33.1535 145.043 33.7499 145.043 34.4782V49.8046C145.043 50.533 144.547 51.1294 143.94 51.1294Z" fill="#C0D8FB"/>
<path d="M143.369 50.3506H131.297C130.743 50.3506 130.289 49.8049 130.289 49.1396V35.1415C130.289 34.4762 130.743 33.9316 131.297 33.9316H143.369C143.922 33.9316 144.376 34.4762 144.376 35.1415V49.1396C144.376 49.8049 143.922 50.3506 143.369 50.3506Z" fill="#DFEBFD"/>
<path d="M137.013 35.5718C137.013 35.3597 137.156 35.188 137.332 35.188C137.509 35.188 137.651 35.3597 137.651 35.5718C137.651 35.7838 137.509 35.9556 137.332 35.9556C137.156 35.9556 137.013 35.7838 137.013 35.5718Z" fill="#AADAF1"/>
<path d="M139.59 36.1148C139.676 35.9289 139.871 35.8624 140.025 35.9648C140.178 36.0683 140.234 36.3017 140.149 36.4876C140.063 36.6724 139.869 36.7389 139.714 36.6365C139.56 36.533 139.505 36.2996 139.59 36.1148Z" fill="#AADAF1"/>
<path d="M141.798 38.2231C141.947 38.1077 142.144 38.1591 142.24 38.3375C142.335 38.5158 142.292 38.7529 142.145 38.8683C141.996 38.9827 141.799 38.9313 141.703 38.7529C141.608 38.5756 141.651 38.3375 141.798 38.2231Z" fill="#AADAF1"/>
<path d="M142.892 41.4845C143.068 41.4845 143.211 41.6565 143.211 41.8687C143.211 42.0809 143.068 42.2529 142.892 42.2529C142.716 42.2529 142.573 42.0809 142.573 41.8687C142.573 41.6565 142.716 41.4845 142.892 41.4845Z" fill="#AADAF1"/>
<path d="M142.333 45.2733C142.457 45.4224 142.457 45.666 142.333 45.8151C142.209 45.9653 142.006 45.9653 141.881 45.8151C141.757 45.666 141.757 45.4224 141.881 45.2733C142.006 45.1231 142.209 45.1231 142.333 45.2733Z" fill="#AADAF1"/>
<path d="M140.327 47.6893C140.452 47.8391 140.452 48.0814 140.327 48.2311C140.202 48.3819 140.001 48.3819 139.876 48.2311C139.751 48.0814 139.751 47.8391 139.876 47.6893C140.001 47.5385 140.202 47.5385 140.327 47.6893Z" fill="#AADAF1"/>
<path d="M137.012 48.9336C137.012 48.7215 137.155 48.5499 137.331 48.5499C137.507 48.5499 137.65 48.7215 137.65 48.9336C137.65 49.1458 137.507 49.3174 137.331 49.3174C137.155 49.3174 137.012 49.1458 137.012 48.9336Z" fill="#AADAF1"/>
<path d="M135.063 36.1148C134.977 35.9289 134.783 35.8624 134.63 35.9648C134.475 36.0683 134.419 36.3017 134.505 36.4876C134.59 36.6724 134.785 36.7389 134.939 36.6365C135.092 36.533 135.149 36.2996 135.063 36.1148Z" fill="#AADAF1"/>
<path d="M132.854 38.2228C132.706 38.1082 132.509 38.1593 132.413 38.3375C132.318 38.5157 132.36 38.7534 132.508 38.868C132.657 38.9827 132.854 38.9316 132.949 38.7534C133.046 38.5751 133.003 38.3385 132.854 38.2228Z" fill="#AADAF1"/>
<path d="M131.761 41.4854C131.585 41.4854 131.441 41.657 131.441 41.8692C131.441 42.0813 131.585 42.2529 131.761 42.2529C131.937 42.2529 132.08 42.0813 132.08 41.8692C132.08 41.657 131.937 41.4854 131.761 41.4854Z" fill="#AADAF1"/>
<path d="M132.319 45.2725C132.195 45.4223 132.195 45.6657 132.319 45.8154C132.444 45.9652 132.646 45.9652 132.77 45.8154C132.895 45.6657 132.895 45.4223 132.77 45.2725C132.646 45.1228 132.444 45.1228 132.319 45.2725Z" fill="#AADAF1"/>
<path d="M134.325 47.6893C134.201 47.8391 134.201 48.0814 134.325 48.2311C134.45 48.3819 134.652 48.3819 134.777 48.2311C134.901 48.0814 134.901 47.8391 134.777 47.6893C134.652 47.5385 134.45 47.5385 134.325 47.6893Z" fill="#AADAF1"/>
<path d="M137.246 41.8692C137.246 41.657 137.389 41.4854 137.565 41.4854C137.742 41.4854 137.884 41.657 137.884 41.8692C137.884 42.0813 137.742 42.2529 137.565 42.2529C137.389 42.2529 137.246 42.0813 137.246 41.8692Z" fill="#AADAF1"/>
<path d="M137.611 41.8696H137.522V37.0743H137.611V41.8696Z" fill="#AADAF1"/>
<path d="M137.607 41.9873L137.445 41.7398L139.561 39.744L139.723 39.9915L137.607 41.9873Z" fill="#AADAF1"/>
<path d="M65.7796 115.161C65.7796 115.161 63.0808 111.379 65.6132 108.976C65.6132 108.976 67.463 107.631 68.9712 107.74C68.9712 107.74 66.834 112.046 67.5254 112.474C68.2169 112.902 69.6189 107.47 69.6189 107.47C69.6189 107.47 73.8283 106.98 75.1825 107.762C75.1825 107.762 71.584 111.3 72.3418 111.51C73.0997 111.721 76.9865 108.248 76.9865 108.248C76.9865 108.248 80.9043 109.049 80.6954 111.921C80.4865 114.792 79.1366 115.678 78.5433 115.602C77.95 115.525 74.4792 113.934 74.4036 114.519C74.328 115.102 76.4172 117.012 77.8801 117.1C77.8801 117.1 75.1181 120.76 73.2824 119.704C71.4467 118.647 71.29 116.973 70.1456 116.346C69.0014 115.718 68.0245 115.719 68.497 116.359C68.9694 117 71.0404 117.622 71.6948 119.014C72.3492 120.404 72.9363 121.342 71.0371 120.998C69.1379 120.655 66.0506 118.985 65.9152 117.074C65.7796 115.161 65.7796 115.161 65.7796 115.161Z" fill="#B76565"/>
<path d="M78.7701 111.997C78.7701 111.997 68.1292 111.505 65.7793 115.161C65.7793 115.161 65.2596 117.031 63.6604 118.734L63.4111 119.55C63.4111 119.55 65.2551 117.214 65.9149 117.074C65.9149 117.074 64.883 112.543 78.7701 111.997Z" fill="#E2F0FE"/>
<path d="M63.6606 118.735C63.6606 118.735 61.3767 120.764 61.218 124.39L61.6326 124.434C61.6326 124.434 62.362 120.685 63.6805 119.218C64.9989 117.753 63.6606 118.735 63.6606 118.735Z" fill="#E2F0FE"/>
<path d="M56.3439 110.404C56.3439 110.404 60.6369 107.516 58.6335 103.595C58.6335 103.595 57.0308 101.189 55.3136 100.57C55.3136 100.57 56.2294 106.416 55.3136 106.553C54.3978 106.69 54.6839 99.9513 54.6839 99.9513C54.6839 99.9513 50.1619 97.3377 48.3874 97.5437C48.3874 97.5437 51.1923 103.252 50.2763 103.114C49.3605 102.977 46.2123 97.2005 46.2123 97.2005C46.2123 97.2005 41.5758 96.1688 40.8317 99.4697C40.0876 102.771 41.2896 104.421 41.9765 104.627C42.6633 104.834 47.0708 104.765 46.9564 105.453C46.8419 106.14 43.8654 107.241 42.2054 106.622C42.2054 106.622 44.0372 112.055 46.4413 111.78C48.8454 111.505 49.5895 109.717 51.0777 109.579C52.566 109.441 53.6536 109.923 52.9095 110.404C52.1653 110.886 49.6467 110.562 48.4447 111.79C47.2426 113.018 46.2695 113.774 48.5019 114.324C50.7343 114.874 54.7411 114.531 55.5425 112.468C56.3439 110.404 56.3439 110.404 56.3439 110.404Z" fill="#28C44A"/>
<path d="M42.949 100.501C42.949 100.501 54.9695 105.177 56.3432 110.404C56.3432 110.404 56.286 112.742 57.4881 115.424V116.456C57.4881 116.456 56.2288 112.949 55.5419 112.468C55.5419 112.468 58.2322 107.928 42.949 100.501Z" fill="#E2F0FE"/>
<path d="M57.4882 115.424C57.4882 115.424 59.3419 118.806 58.2851 122.924L57.8081 122.77C57.8081 122.77 58.2711 118.236 57.3012 115.955C56.3314 113.674 57.4882 115.424 57.4882 115.424Z" fill="#E2F0FE"/>
<path d="M63.1739 106.421C63.1739 106.421 57.5149 102.614 60.1558 97.4458C60.1558 97.4458 62.2685 94.2728 64.5322 93.4574C64.5322 93.4574 63.3249 101.163 64.5322 101.344C65.7394 101.526 65.3621 92.641 65.3621 92.641C65.3621 92.641 71.3229 89.1965 73.662 89.468C73.662 89.468 69.9648 96.9924 71.172 96.8114C72.3793 96.6305 76.5293 89.0156 76.5293 89.0156C76.5293 89.0156 82.641 87.6553 83.622 92.0066C84.6029 96.358 83.0183 98.5337 82.1128 98.8061C81.2074 99.0776 75.3975 98.9871 75.5484 99.894C75.6993 100.8 79.6229 102.251 81.8111 101.435C81.8111 101.435 79.3965 108.597 76.2274 108.234C73.0584 107.871 72.0775 105.514 70.1157 105.333C68.1539 105.151 66.7203 105.787 67.7012 106.421C68.6821 107.055 72.0021 106.629 73.5866 108.247C75.1711 109.866 76.4538 110.863 73.5111 111.588C70.5684 112.314 65.2866 111.86 64.2303 109.141C63.1739 106.421 63.1739 106.421 63.1739 106.421Z" fill="#647DFF"/>
<path d="M80.8301 93.3671C80.8301 93.3671 64.9848 99.5312 63.1738 106.421C63.1738 106.421 63.2493 109.503 61.6648 113.039V114.398C61.6648 114.398 63.3248 109.775 64.2303 109.141C64.2303 109.141 60.684 103.158 80.8301 93.3671Z" fill="#AADAF1"/>
<path d="M61.6643 113.039C61.6643 113.039 59.2208 117.497 60.6138 122.924L61.2425 122.721C61.2425 122.721 60.6322 116.743 61.9107 113.738C63.1892 110.731 61.6643 113.039 61.6643 113.039Z" fill="#AADAF1"/>
<path d="M62.9829 134.692C69.105 134.692 74.068 128.729 74.068 121.374H51.8977C51.8977 128.729 56.8608 134.692 62.9829 134.692Z" fill="#AADAF1"/>
<path d="M74.2216 135.37H51.7451C51.7451 134.463 52.3574 133.726 53.1127 133.726H72.854C73.6093 133.726 74.2216 134.463 74.2216 135.37Z" fill="#AADAF1"/>
<path d="M74.3205 121.782H51.5337V121.375H74.3205V121.782Z" fill="#9FC1F4"/>
<path d="M76.5396 136.182V137.461C76.5396 137.908 76.419 138.274 76.2719 138.274H37.451C37.3039 138.274 37.1833 137.908 37.1833 137.461V136.182C37.1833 135.735 37.3039 135.369 37.451 135.369H76.2719C76.419 135.369 76.5396 135.735 76.5396 136.182Z" fill="#9ABFE2"/>
<path d="M76.5399 136.182V137.461C76.5399 137.908 76.4292 138.274 76.2942 138.274H45.4747C45.3396 138.274 45.229 137.908 45.229 137.461V136.182C45.229 135.735 45.3396 135.369 45.4747 135.369H76.2942C76.4292 135.369 76.5399 135.735 76.5399 136.182Z" fill="#8DC5E0"/>
<path d="M66.7147 186.537H39.1543V138.274H66.7147V186.537Z" fill="#515151"/>
<path d="M74.4382 186.537H46.8777V138.274H74.4382V186.537Z" fill="#DFEBFD"/>
<path d="M48.6245 183.553H72.6917V139.957H48.6245V183.553ZM72.9573 183.872H48.3589V139.638H72.9573V183.872Z" fill="#AADAF1"/>
<path d="M72.8243 154.59H48.4915V154.27H72.8243V154.59Z" fill="#AADAF1"/>
<path d="M72.8243 169.508H48.4915V169.188H72.8243V169.508Z" fill="#AADAF1"/>
<path d="M63.1517 142.491H58.6365C58.4173 142.491 58.238 142.275 58.238 142.012C58.238 141.749 58.4173 141.533 58.6365 141.533H63.1517C63.3708 141.533 63.5501 141.749 63.5501 142.012C63.5501 142.275 63.3708 142.491 63.1517 142.491Z" fill="#AADAF1"/>
<path d="M63.1517 157.079H58.6365C58.4173 157.079 58.238 156.863 58.238 156.6C58.238 156.337 58.4173 156.122 58.6365 156.122H63.1517C63.3708 156.122 63.5501 156.337 63.5501 156.6C63.5501 156.863 63.3708 157.079 63.1517 157.079Z" fill="#AADAF1"/>
<path d="M63.1517 172.287H58.6365C58.4173 172.287 58.238 172.071 58.238 171.808C58.238 171.545 58.4173 171.33 58.6365 171.33H63.1517C63.3708 171.33 63.5501 171.545 63.5501 171.808C63.5501 172.071 63.3708 172.287 63.1517 172.287Z" fill="#AADAF1"/>
<path d="M45.2579 128.751V135.457H39.6304V128.73C39.6304 128.665 39.6328 128.601 39.6387 128.538C39.6977 127.767 40.1097 127.12 40.6775 126.831C41.0825 126.625 41.3669 126.18 41.3893 125.653L41.4307 124.684H43.4965L43.5096 125.65C43.5178 126.176 43.7952 126.628 44.199 126.832C44.7692 127.121 45.1835 127.768 45.2485 128.538C45.2543 128.609 45.2579 128.679 45.2579 128.751Z" fill="#E2F0FE"/>
<path d="M43.6455 125.109H41.2354L41.2992 124.353H43.5816L43.6455 125.109Z" fill="#AADAF1"/>
<path d="M45.2579 128.751V133.076H39.6304V128.73C39.6304 128.664 39.6328 128.601 39.6387 128.538H45.2485C45.2543 128.608 45.2579 128.679 45.2579 128.751Z" fill="#1B3C87"/>
<path d="M49.8817 131.707V135.457H46.7339V131.694C46.7339 131.658 46.7353 131.623 46.7386 131.586C46.7715 131.156 47.0021 130.794 47.3197 130.632C47.5461 130.517 47.7053 130.268 47.7178 129.973L47.741 129.431H48.8965L48.9038 129.971C48.9084 130.265 49.0635 130.519 49.2894 130.632C49.6084 130.795 49.8401 131.157 49.8765 131.586C49.8797 131.627 49.8817 131.666 49.8817 131.707Z" fill="#E2F0FE"/>
<path d="M48.9788 129.669H47.6306L47.6664 129.246H48.9431L48.9788 129.669Z" fill="#AADAF1"/>
<path d="M49.8817 131.707V134.126H46.7339V131.694C46.7339 131.658 46.7353 131.623 46.7386 131.586H49.8765C49.8797 131.627 49.8817 131.666 49.8817 131.707Z" fill="#1B3C87"/>
<path d="M227.847 186.962H163.375V45.3689H227.847V186.962Z" fill="#D3E3F7"/>
<path d="M225.096 186.962H166.207V47.8556H225.096V186.962Z" fill="#E5EFFB"/>
<path d="M215.105 116.458C215.105 114.731 216.271 113.33 217.709 113.33C219.147 113.33 220.312 114.731 220.312 116.458C220.312 118.186 219.147 119.585 217.709 119.585C216.271 119.585 215.105 118.186 215.105 116.458Z" fill="#D3E3F7"/>
<path d="M207.891 78.1558H183.582V68.9359H207.891V78.1558Z" fill="#F5F9FD"/>
<path d="M203.379 72.7432H188.093V71.7947H203.379V72.7432Z" fill="#D3E3F7"/>
<path d="M201.24 75.2979H190.232V74.3493H201.24V75.2979Z" fill="#D3E3F7"/>
<path d="M183.873 77.8064H207.598V69.2875H183.873V77.8064ZM208.181 78.5073H183.289V68.5865H208.181V78.5073Z" fill="#8DC5E0"/>
<path d="M167.791 59.1568C165.773 57.8993 164.156 58.6896 164.156 58.6896C157.981 57.8185 156.18 66.4702 156.264 69.4469C156.346 72.4224 156.63 75.6206 153.872 79.4879C145.908 90.6586 162.589 91.1514 162.589 91.1514C162.73 82.2263 171.635 85.4828 171.245 86.3873C182.66 89.6786 172.38 62.0178 167.791 59.1568Z" fill="#163560"/>
<path d="M143.973 96.3659C143.973 96.3659 142.887 94.3794 142.011 94.3401C141.136 94.3019 139.516 93.7564 139.646 94.1459C139.776 94.5354 140.781 94.5746 140.877 94.8081C140.974 95.0415 139.387 95.3917 138.932 95.431C138.479 95.4703 137.409 95.431 137.442 95.7037C137.474 95.9765 139.369 97.1056 140.707 96.9496C142.044 96.7936 143.698 97.4165 143.698 97.4165L143.973 96.3659Z" fill="#FFB27D"/>
<path d="M159.675 97.0076C159.675 97.0076 159.085 98.4118 158.015 100.025C156.725 101.967 154.735 104.21 152.237 104.652C151.044 104.864 149.877 104.555 148.805 103.983C148.802 103.982 148.801 103.982 148.801 103.982C145.767 102.364 143.485 98.6431 143.485 98.6431C142.951 96.8909 143.825 95.7027 143.825 95.7027C143.825 95.7027 149.952 97.3581 150.536 97.0076C151.119 96.6571 154.523 84.8779 155.332 83.3973C156.143 81.9179 158.904 81.1493 158.904 81.1493L159.675 97.0076Z" fill="#F9DDBF"/>
<path d="M158.016 100.025C156.726 101.966 154.736 104.21 152.238 104.652C151.046 104.864 149.878 104.555 148.806 103.983C148.924 104.002 151.954 104.451 153.162 101.855C154.393 99.2069 155.726 95.0013 157.555 96.4031C158.345 97.0083 158.31 98.5118 158.016 100.025Z" fill="#F2CCAA"/>
<path d="M182.531 176.454C182.531 176.454 184.4 178.503 184.036 179.959C183.671 181.416 181.984 182.387 181.755 184.166C181.528 185.947 180.616 186.917 179.796 186.917C178.976 186.917 175.884 186.917 175.884 186.917C175.884 186.917 175.279 185.665 176.738 185.287C178.197 184.91 178.747 182.818 178.656 180.877C178.564 178.935 178.792 176.346 178.792 176.346L181.892 175.483L182.531 176.454Z" fill="#233862"/>
<path d="M166.71 177.324C166.71 177.324 167.383 186.006 166.562 186.492L156.06 186.466C156.06 186.466 156.06 185.01 157.746 184.686C159.434 184.363 162.397 183.176 162.898 180.534C163.4 177.891 166.71 177.324 166.71 177.324Z" fill="#233862"/>
<path d="M174.194 115.034C172.033 109.211 170.711 107.54 170.963 105.733C171.151 104.387 170.391 80.6516 170.391 80.6516C170.134 80.5562 169.621 80.4706 169.339 80.3957C168.452 80.159 167.719 79.411 167.413 78.3835C167.045 77.1463 166.753 75.3184 166.76 73.0276L166.483 73.0936L161.829 74.2014C161.829 74.2014 161.935 75.9609 161.937 77.6195C161.937 77.6324 161.937 77.6466 161.937 77.6608C161.944 79.1005 161.157 80.3713 160.005 80.7707C159.417 80.9747 158.906 81.1489 158.906 81.1489C158.906 81.1489 157.196 87.012 156.87 93.035C156.543 99.0582 159.979 101.675 156.845 113.712C153.645 126.004 175.388 118.252 174.194 115.034Z" fill="#FFB27D"/>
<path d="M161.828 74.2011C161.828 74.2011 161.933 75.9608 161.937 77.6187C164.542 77.5303 165.918 74.676 166.483 73.093L161.828 74.2011Z" fill="#D79C43"/>
<path d="M160.959 75.7707C160.959 75.7707 167.122 75.8932 167.126 71.2813C167.13 66.6682 167.928 63.5787 163.993 63.3052C160.059 63.0316 159.293 64.7905 158.98 66.3303C158.667 67.8688 159.355 75.6209 160.959 75.7707Z" fill="#FFB27D"/>
<path d="M161.187 63.1916C161.187 63.1916 162.874 68.6022 165.464 69.4027C168.053 70.2033 169.177 69.3691 169.177 69.3691C169.177 69.3691 167.19 67.4737 166.778 64.1642C166.778 64.1642 162.459 60.6166 161.187 63.1916Z" fill="#163560"/>
<path d="M161.604 63.6323C161.604 63.6323 160.352 64.1945 159.837 65.2904C159.334 66.3624 158.905 67.7822 159.004 69.5249C159.004 69.5249 157.732 65.8466 159.162 63.7657C160.677 61.5597 161.604 63.6323 161.604 63.6323Z" fill="#163560"/>
<path d="M162.298 72.9097C162.298 72.9097 161.873 73.582 161.023 73.5342C160.337 73.4947 160.073 72.7805 160.073 72.7805C160.073 72.7805 161.331 72.4169 162.298 72.9097Z" fill="#1B3C87"/>
<path d="M173.354 91.151C173.354 91.151 173.331 94.6626 173.175 97.8438C173.07 99.9524 172.909 101.916 172.657 102.615C172.025 104.367 171.312 104.652 171.312 104.652L165.798 106.276L163.859 106.846L157.745 104.652C157.745 104.652 154.96 95.3133 156.079 90.0562C157.196 84.7991 158.904 81.1484 158.904 81.1484C158.904 81.1484 163.894 87.0177 170.39 80.6508L173.354 91.151Z" fill="#F9DDBF"/>
<path d="M173.175 97.8443C173.071 99.953 172.909 101.917 172.657 102.616C172.025 104.367 171.312 104.652 171.312 104.652L165.798 106.277L163.404 105.431C163.404 105.431 171.398 103.975 170.512 95.7112L173.175 97.8443Z" fill="#F2CCAA"/>
<path d="M158.135 106.07C158.135 106.07 155.107 117.393 154.912 121.249C154.717 125.104 160.7 176.015 160.941 177.791C161.168 179.466 162.898 180.534 162.898 180.534C162.898 180.534 163.693 181.098 164.831 180.713C166.407 180.177 166.904 179.538 166.904 179.538C166.904 179.538 169.261 143.228 167.802 130.257C166.345 117.287 166.327 106.07 166.327 106.07H158.135Z" fill="#AADAF1"/>
<path d="M170.964 105.732C170.964 105.732 175.581 113.177 176.013 118.211C176.443 123.244 176.688 140.923 177.606 145.829C178.523 150.736 181.893 160.179 181.893 175.483C181.893 175.483 181.544 176.36 180.461 176.828C180.115 176.976 179.652 177.122 179.201 177.246C178.31 177.491 177.395 176.967 176.987 175.982C174.709 170.47 167.45 152.692 167.078 149.002C166.815 146.391 164.523 129.106 159.524 118.964C158.324 116.529 160.26 106.846 160.26 106.846L170.964 105.732Z" fill="#AADAF1"/>
<path d="M157.651 104.322C157.651 104.322 158.866 105.477 161.281 105.536C164.165 105.606 171.311 104.652 171.311 104.652C171.311 104.652 171.629 105.718 171.617 106.844C171.617 106.844 162.888 109.489 157.83 107.23C157.83 107.23 157.178 105.755 157.651 104.322Z" fill="#233862"/>
<path d="M160.589 105.467C160.103 105.467 159.709 106.035 159.709 106.733C159.709 107.431 160.103 107.998 160.589 107.998C161.074 107.998 161.469 107.431 161.469 106.733C161.469 106.035 161.074 105.467 160.589 105.467ZM160.589 108.522C159.863 108.522 159.273 107.72 159.273 106.733C159.273 105.746 159.863 104.943 160.589 104.943C161.315 104.943 161.905 105.746 161.905 106.733C161.905 107.72 161.315 108.522 160.589 108.522Z" fill="#1B3C87"/>
<path d="M182.471 123.627L168.733 127.186L167.074 117.935L180.811 114.377L182.471 123.627Z" fill="#163560"/>
<path d="M167.073 117.935C167.073 117.935 170.913 121.801 175.182 120.456C179.449 119.111 180.81 114.377 180.81 114.377L167.073 117.935Z" fill="#17467F"/>
<path d="M168.996 116.718C168.715 116.718 168.485 116.993 168.485 117.33C168.485 117.668 168.715 117.942 168.996 117.942C169.276 117.942 169.504 117.668 169.504 117.33C169.504 116.993 169.276 116.718 168.996 116.718ZM168.996 118.247C168.574 118.247 168.232 117.835 168.232 117.33C168.232 116.824 168.574 116.414 168.996 116.414C169.416 116.414 169.758 116.824 169.758 117.33C169.758 117.835 169.416 118.247 168.996 118.247Z" fill="#17467F"/>
<path d="M180.178 118.491C180.178 118.491 180.183 119.832 180.394 120.478C180.607 121.125 181.241 121.987 181.454 121.987C181.665 121.987 181.259 120.64 181.365 120.667C181.47 120.694 181.981 122.909 182.352 122.964C182.723 123.017 183.058 120.478 182.864 119.482C182.671 118.484 181.833 117.289 181.833 117.289L180.178 118.491Z" fill="#FFB27D"/>
<path d="M170.392 80.6511C170.392 80.6511 173.8 81.2065 175.636 85.5503C177.054 88.9069 178.027 99.4654 179.027 102.79C179.984 105.972 181.306 112.122 182.043 117.05C182.1 117.432 181.925 117.809 181.624 117.952L180.371 118.549C180.099 118.678 179.792 118.552 179.643 118.253C178.529 116.005 174.137 107.005 172.611 101.798C170.828 95.7106 167.492 91.93 167.492 91.93L170.392 80.6511Z" fill="#F9DDBF"/>
<path d="M168.743 116.62C168.735 116.469 167.943 101.413 168.094 92.9471C168.173 88.5022 168.744 85.3708 169.211 83.5267C169.719 81.5138 170.477 80.6906 170.498 80.6516L170.756 80.7435C170.737 80.78 168.633 84.5833 168.483 92.957C168.332 101.403 169.124 116.44 169.132 116.591L168.743 116.62Z" fill="#0C2442"/>
<path d="M103.315 186.447H109.793C109.744 186.039 109.579 184.797 109.276 183.653C109.171 183.255 109.048 182.868 108.909 182.532C108.279 181.022 104.278 181.983 104.278 181.983C104.278 181.983 103.907 182.366 103.617 183.827C103.488 184.47 103.374 185.325 103.315 186.447Z" fill="#233862"/>
<path d="M115.206 67.5814C115.206 67.5814 120.368 68.6702 121.535 72.33C122.702 75.9898 129.293 135.113 129.293 135.113C129.293 135.113 126.029 138.22 119.022 137.104C112.015 135.988 115.206 67.5814 115.206 67.5814Z" fill="white"/>
<path d="M122.889 183.991C122.907 185.05 123.018 186.052 123.337 186.447H136.149C135.986 185.89 135.525 185.052 134.209 184.796C132.715 184.505 130.385 183.641 129.025 181.913C128.54 181.3 128.179 180.576 128.022 179.729C127.419 176.505 123.038 180.717 123.038 180.717C123.038 180.717 122.861 182.415 122.889 183.991Z" fill="#233862"/>
<path d="M128.407 182.423C126.975 182.972 124.239 184.648 122.501 183.86C121.377 183.351 115.098 161.528 114.69 151.982C114.661 151.288 114.547 150.32 114.369 149.138C113.997 146.675 113.347 143.29 112.597 139.555C110.588 129.546 107.87 117.024 107.929 113.022C108.02 106.81 123.337 111.72 123.337 111.72C123.337 111.72 124.391 116.815 124.6 124.193C125.016 138.836 126.16 163.571 129.27 180.749C129.402 181.477 129.001 182.197 128.407 182.423Z" fill="#F7D167"/>
<path d="M117.776 113.044L109.679 183.55C109.679 183.55 106.123 184.58 103.358 183.757C103.358 183.757 100.987 146.257 101.184 137.192C101.382 128.126 99.4832 112.934 101.618 111.258C103.752 109.583 117.776 113.044 117.776 113.044Z" fill="#F7D167"/>
<path d="M100.595 70.8107C100.595 70.8107 109.104 64.2004 115.206 67.5815C116.179 68.1202 117.289 69.623 118.083 70.6744C120.289 73.5958 124.6 119.991 124.6 119.991C124.6 119.991 112.363 124.971 100.595 118.301V70.8107Z" fill="#1B3C87"/>
<path d="M115.691 67.4136C115.691 67.4136 124.305 71.6548 125.472 74.9141C126.638 78.1724 130.431 98.1862 130.431 100.533C130.431 102.88 123.828 101.058 122.765 97.272C121.883 94.1292 118.905 84.4738 117.336 78.3669L115.691 67.4136Z" fill="white"/>
<path d="M113.902 70.6453C112.021 71.0883 109.259 70.6162 107.237 69.0146C108.15 66.3948 108.524 64.3252 108.657 62.9867C108.665 62.915 108.671 62.8463 108.676 62.7798C108.737 62.0861 108.728 61.615 108.7 61.3986H113.562C113.562 61.3986 114.891 62.1287 114.891 62.6342C114.891 62.9035 114.893 63.1614 114.897 63.4079C114.906 64.0798 114.929 64.6663 114.958 65.1697C115.051 66.8087 115.207 67.5814 115.207 67.5814C115.207 67.5814 115.801 70.1981 113.902 70.6453Z" fill="#FFB27D"/>
<path d="M114.957 65.1698C111.274 66.0257 109.136 63.6067 108.656 62.9868C108.588 62.8974 108.553 62.8454 108.553 62.8454C108.592 62.8225 108.633 62.8007 108.675 62.7799C110.046 62.1132 113.158 62.6436 114.896 63.408C114.905 64.0799 114.928 64.6664 114.957 65.1698Z" fill="#FFB27D"/>
<path d="M107.454 60.4389C108.112 64.6946 112.683 64.5553 114.659 64.288C115.214 64.2131 115.564 64.1278 115.564 64.1278C116.191 63.9271 116.54 62.7405 116.703 61.1867C117.025 58.1125 116.618 53.5989 116.186 52.4445C115.535 50.7066 114.31 48.8284 109.706 50.1835C105.102 51.5407 106.609 54.9862 107.454 60.4389Z" fill="#FFB27D"/>
<path d="M116.357 50.07C115.729 49.0238 114.394 47.7446 113.183 46.9573C110.58 45.2652 107.249 47.0103 107.235 47.0176C103.475 49.004 102.493 52.4599 104.487 57.844C106.594 63.537 108.601 62.8963 108.601 62.8963C108.601 62.8963 108.175 62.5771 108.214 60.8028C108.216 60.7019 108.219 60.6177 108.223 60.5459C108.243 60.1819 108.136 59.8169 107.909 59.5746C107.443 59.0743 107.215 57.5601 107.606 57.1379C108.078 56.6293 108.74 57.2471 108.952 57.7223C109.138 58.0583 109.469 58.1758 109.777 57.9407C110.948 57.0526 110.188 55.2742 111.306 54.1874C112.424 53.0995 114.693 54.0127 116.371 53.1453C118.566 52.1625 116.831 50.8583 116.357 50.07Z" fill="#233862"/>
<path d="M116.882 139.455C116.141 139.684 115.408 139.872 114.678 140.018C114.034 140.15 113.392 140.248 112.749 140.313C109.108 140.694 105.45 140.078 101.175 138.605C100.211 138.274 99.2167 137.897 98.184 137.48C98.0741 137.436 98.4653 123.852 98.9163 109.842C98.9622 108.396 99.0098 106.944 99.0565 105.501C99.0773 104.891 99.0964 104.284 99.1171 103.677C99.5266 91.2856 99.9317 80.0952 100.017 79.492C100.213 78.1286 100.396 76.9658 100.595 75.9591C101.177 73.0232 101.901 71.4133 103.478 70.029C103.631 69.8886 104.893 69.1253 106.005 68.4607C106.927 67.9106 107.746 67.4301 107.746 67.4301C107.747 67.4301 107.747 67.4301 107.747 67.4301C108.113 67.6464 108.553 68.6552 109.015 70.0727C109.861 72.6852 110.775 76.685 111.412 79.6719C111.413 79.6802 111.414 79.6844 111.414 79.6875C111.414 79.6886 111.414 79.6886 111.414 79.6886C111.824 81.6167 112.117 83.1195 112.201 83.5501C112.343 84.2781 112.531 85.6873 112.752 87.5978C113.051 90.1967 113.409 93.7244 113.787 97.7284C113.826 98.1392 113.865 98.5562 113.904 98.9774C113.948 99.4569 113.994 99.9436 114.039 100.433C114.054 100.592 114.068 100.75 114.081 100.907C114.227 102.493 114.374 104.13 114.52 105.793C114.641 107.167 116.378 108.162 116.497 109.56C116.566 110.381 116.71 117.958 116.896 120.376C117.029 122.103 116.934 138.644 116.882 139.455Z" fill="white"/>
<path d="M104.322 84.4878C104.317 84.5169 104.028 97.0187 111.855 98.5371C119.683 100.057 114.482 100.458 114.482 100.458C114.482 100.458 99.7544 99.7061 99.5112 99.2381C99.268 98.7711 104.322 84.4878 104.322 84.4878Z" fill="white"/>
<path d="M110.936 103.904C110.936 103.904 110.788 104.029 110.506 104.248C110.502 104.25 110.497 104.255 110.492 104.258C109.298 105.174 105.753 107.67 100.593 109.345C100.051 109.521 99.4911 109.688 98.9146 109.843C98.9605 108.396 99.0081 106.944 99.0549 105.502C98.3736 105.438 97.7209 105.334 97.115 105.179C97.1358 104.989 97.1565 104.799 97.1773 104.608C97.8335 104.285 98.4861 103.973 99.1155 103.678C99.6279 103.436 100.124 103.208 100.593 102.995C102.713 102.028 104.284 101.372 104.284 101.372L110.559 103.761L110.936 103.904Z" fill="white"/>
<path d="M112.597 103.695C112.597 103.695 111.791 103.936 110.507 104.247C110.503 104.247 110.498 104.248 110.493 104.25C108.126 104.822 104.148 105.623 100.594 105.58C100.07 105.573 99.5541 105.548 99.0555 105.501C98.3743 105.438 97.7216 105.334 97.1157 105.179C95.8164 104.85 94.7283 104.293 94.0167 103.421C88.7303 96.9515 96.9019 73.7314 98.6201 71.4725C100.626 68.8341 104.287 67.9085 106.309 67.5913C106.393 67.5788 106.474 67.5653 106.553 67.5538C107.263 67.4519 107.72 67.4311 107.745 67.4301C107.746 67.4301 107.746 67.4301 107.746 67.4301C107.746 67.4301 107.587 68.0426 107.321 69.0806C107.218 69.483 107.099 69.949 106.967 70.469C105.726 75.3538 103.33 84.9562 102.274 90.3704C101.887 92.3516 101.68 93.7722 101.774 94.1966C102.186 96.0457 106.458 96.9973 109.164 97.4174C110.293 97.5932 111.15 97.6754 111.341 97.693C111.355 97.693 111.367 97.6941 111.381 97.6972L111.538 98.4678L111.912 100.317L112.281 102.134L112.597 103.695Z" fill="white"/>
<path d="M127.341 114.825L109.184 113.906L112.868 86.7202L131.025 87.6396L127.341 114.825Z" fill="#233862"/>
<path d="M111.381 97.6977C111.381 97.6977 114.916 97.4013 115.093 98.3914C115.506 100.698 112.055 102.593 110.936 102.464C109.818 102.334 110.568 97.5437 111.381 97.6977Z" fill="#FFB27D"/>
<path d="M130.032 93.1601C130.032 93.1601 126.651 91.8892 126.287 92.8033C125.441 94.9333 128.435 97.735 129.547 97.9201C130.66 98.1053 130.853 93.236 130.032 93.1601Z" fill="#FFB27D"/>
<path d="M108.113 66.0648C108.113 66.0648 106.626 66.9166 105.88 68.202C105.88 68.202 111.439 79.7959 111.413 79.6867C111.388 79.5786 109.534 67.5499 108.113 66.0648Z" fill="white"/>
<path d="M115.034 66.2283C115.524 66.4509 116.463 67.6063 116.674 68.2449L117.335 78.3672C117.335 78.3672 115.924 70.9385 115.206 67.5813C115.024 66.7275 115.057 66.4685 115.034 66.2283Z" fill="white"/>
<path d="M118.888 87.025C118.888 87.025 119.031 86.2699 119.857 86.3583C120.684 86.4457 125.327 86.7203 125.327 86.7203C125.327 86.7203 126.222 86.7026 126.139 87.3921L118.888 87.025Z" fill="#F7D167"/>
<path d="M113.561 61.3986C113.561 61.3986 114.163 62.059 115.135 61.8541C115.712 61.7335 116.035 60.8318 116.035 60.8318C116.035 60.8318 114.927 60.5926 113.561 61.3986Z" fill="#1B3C87"/>
<path d="M258.194 187.387H17.2807C17.1143 187.387 16.9783 187.224 16.9783 187.024V186.811C16.9783 186.61 17.1143 186.447 17.2807 186.447H258.194C258.361 186.447 258.497 186.61 258.497 186.811V187.024C258.497 187.224 258.361 187.387 258.194 187.387Z" fill="#2E3552"/>
</svg>
