<svg width="704" height="753" viewBox="0 0 704 753" fill="none" xmlns="http://www.w3.org/2000/svg">
<g filter="url(#filter0_d_50_76)">
<path d="M0.550837 444.678C18.9051 528.007 63.4944 603.196 126.912 657.755C190.33 712.314 268.76 742.958 349.174 744.599C429.587 746.239 507.145 718.777 568.964 666.774C630.784 614.77 673.144 541.355 689.008 458.723C704.873 376.092 693.287 289.217 656.175 212.529C619.063 135.841 558.66 73.9553 484.997 37.1522C411.334 0.349022 328.846 -9.1569 251.234 10.2134C173.623 29.5837 105.559 76.6643 58.3482 143.635L94.5138 172.657C135.739 114.178 195.173 73.0663 262.944 56.152C330.716 39.2376 402.745 47.5383 467.068 79.6752C531.391 111.812 584.137 165.851 616.543 232.816C648.95 299.781 659.067 375.641 645.213 447.796C631.36 519.951 594.371 584.058 540.39 629.468C486.408 674.878 418.684 698.859 348.466 697.426C278.248 695.993 209.762 669.234 154.385 621.593C99.0075 573.951 60.0716 508.296 44.0445 435.531L0.550837 444.678Z" fill="#A1ADBA"/>
</g>
<defs>
<filter id="filter0_d_50_76" x="0.550842" y="0.407715" width="703.381" height="752.261" filterUnits="userSpaceOnUse" color-interpolation-filters="sRGB">
<feFlood flood-opacity="0" result="BackgroundImageFix"/>
<feColorMatrix in="SourceAlpha" type="matrix" values="0 0 0 0 0 0 0 0 0 0 0 0 0 0 0 0 0 0 127 0" result="hardAlpha"/>
<feOffset dx="4" dy="4"/>
<feGaussianBlur stdDeviation="2"/>
<feComposite in2="hardAlpha" operator="out"/>
<feColorMatrix type="matrix" values="0 0 0 0 0 0 0 0 0 0 0 0 0 0 0 0 0 0 0.25 0"/>
<feBlend mode="normal" in2="BackgroundImageFix" result="effect1_dropShadow_50_76"/>
<feBlend mode="normal" in="SourceGraphic" in2="effect1_dropShadow_50_76" result="shape"/>
</filter>
</defs>
</svg>
