<svg width="1183" height="1280" viewBox="0 0 1183 1280" fill="none" xmlns="http://www.w3.org/2000/svg">
<path d="M104.442 104.328C206.919 35.106 331.414 -1.14465 462.183 0.160307C592.952 1.46523 724.123 40.2671 839.108 111.659C954.092 183.051 1047.73 283.827 1108.17 401.243C1168.61 518.659 1193.15 647.442 1178.68 771.305C1164.21 895.168 1111.38 1008.55 1026.87 1097.11C942.36 1185.67 829.969 1245.44 703.908 1268.84C577.848 1292.25 443.779 1278.26 318.656 1228.62C193.533 1178.99 82.9759 1095.95 0.964862 989.999L29.5203 970.711C107.012 1070.82 211.476 1149.28 329.703 1196.18C447.93 1243.08 574.61 1256.31 693.723 1234.19C812.836 1212.07 919.033 1155.6 998.884 1071.92C1078.73 988.238 1128.65 881.106 1142.33 764.069C1156 647.032 1132.82 525.347 1075.7 414.402C1018.59 303.457 930.119 208.235 821.471 140.778C712.824 73.32 588.882 36.6565 465.32 35.4235C341.757 34.1905 224.124 68.4434 127.295 133.851L104.442 104.328Z" fill="#DC2626"/>
</svg>
